<svg width="30" height="30" viewBox="0 0 30 30" fill="none" xmlns="http://www.w3.org/2000/svg">
<g clip-path="url(#clip0_183_5196)">
<path d="M23.4375 18.75C22.1396 18.75 20.8708 18.3651 19.7916 17.644C18.7124 16.9229 17.8712 15.898 17.3745 14.6989C16.8778 13.4997 16.7479 12.1802 17.0011 10.9072C17.2543 9.63422 17.8793 8.4649 18.7971 7.54712C19.7149 6.62933 20.8842 6.00432 22.1572 5.7511C23.4302 5.49788 24.7497 5.62784 25.9489 6.12454C27.148 6.62124 28.1729 7.46238 28.894 8.54157C29.6151 9.62077 30 10.8896 30 12.1875L30.03 13.125C30.03 14.8486 29.6905 16.5553 29.0309 18.1477C28.3713 19.7401 27.4046 21.187 26.1858 22.4058C24.967 23.6245 23.5201 24.5913 21.9277 25.2509C20.3353 25.9105 18.6286 26.25 16.905 26.25V22.5C18.1367 22.5033 19.3568 22.2624 20.4948 21.7913C21.6328 21.3201 22.6661 20.628 23.535 19.755C23.8727 19.4179 24.1842 19.0556 24.4669 18.6713C24.1264 18.7248 23.7822 18.7517 23.4375 18.7519V18.75ZM6.5625 18.75C5.26456 18.75 3.99577 18.3651 2.91657 17.644C1.83738 16.9229 0.996244 15.898 0.499544 14.6989C0.00284348 13.4997 -0.127116 12.1802 0.1261 10.9072C0.379315 9.63422 1.00433 8.4649 1.92212 7.54712C2.8399 6.62933 4.00922 6.00432 5.28222 5.7511C6.55522 5.49788 7.87472 5.62784 9.07386 6.12454C10.273 6.62124 11.2979 7.46238 12.019 8.54157C12.7401 9.62077 13.125 10.8896 13.125 12.1875L13.155 13.125C13.155 16.606 11.7722 19.9444 9.31078 22.4058C6.84937 24.8672 3.51097 26.25 0.0300029 26.25V22.5C1.26169 22.5033 2.48181 22.2624 3.61982 21.7913C4.75782 21.3201 5.79114 20.628 6.66001 19.755C6.9977 19.4179 7.30923 19.0556 7.59188 18.6713C7.25136 18.7248 6.9072 18.7517 6.5625 18.7519V18.75Z" fill="#1A183E"/>
</g>
<defs>
<clipPath id="clip0_183_5196">
<rect width="30" height="30" fill="white"/>
</clipPath>
</defs>
</svg>
