<svg width="45" height="45" viewBox="0 0 45 45" fill="none" xmlns="http://www.w3.org/2000/svg">
<circle cx="22.5" cy="22.5" r="21.15" stroke="#1D63FE" stroke-width="1.3"/>
<path d="M32.799 20.165L30.424 18.335C30.2626 18.2314 30.0871 18.1516 29.903 18.098C29.7196 18.0386 29.5287 18.0056 29.336 18H22.5L23.301 23H29.336C29.5 23 29.705 22.963 29.902 22.902C30.099 22.841 30.289 22.757 30.423 22.666L32.798 20.834C32.933 20.743 33 20.622 33 20.5C33 20.378 32.933 20.257 32.799 20.165ZM21.5 16H20.5C20.3674 16 20.2402 16.0527 20.1464 16.1464C20.0527 16.2402 20 16.3674 20 16.5V20H16.664C16.498 20 16.294 20.037 16.097 20.099C15.899 20.159 15.71 20.242 15.576 20.335L13.201 22.165C13.066 22.256 13 22.378 13 22.5C13 22.621 13.066 22.742 13.201 22.835L15.576 24.667C15.71 24.758 15.899 24.842 16.097 24.902C16.294 24.963 16.498 25 16.664 25H20V33.5C20 33.6326 20.0527 33.7598 20.1464 33.8536C20.2402 33.9473 20.3674 34 20.5 34H21.5C21.6326 34 21.7598 33.9473 21.8536 33.8536C21.9473 33.7598 22 33.6326 22 33.5V16.5C22 16.3674 21.9473 16.2402 21.8536 16.1464C21.7598 16.0527 21.6326 16 21.5 16Z" fill="#1D63FE"/>
</svg>
