<svg width="45" height="45" viewBox="0 0 45 45" fill="none" xmlns="http://www.w3.org/2000/svg">
<circle cx="22.5" cy="22.5" r="21.15" stroke="#ACACAC" stroke-width="1.3"/>
<path d="M22.9998 11C22.3748 11 21.7538 11.21 21.2188 11.594L19.5627 12.75L17.6547 13H17.6237L17.5928 13.031C16.967 13.1723 16.3941 13.4881 15.9405 13.9417C15.4868 14.3953 15.1711 14.9682 15.0297 15.594L14.9998 15.625V15.656L14.7497 17.594L13.5937 19.094L13.5617 19.125V19.156C12.8627 20.273 12.8317 21.715 13.5937 22.781L14.7808 24.437L15.0938 26.157L11.8747 31.062L10.8438 32.594H15.6248L16.7808 35.281L17.4998 37L18.5308 35.437L21.6868 30.687C22.5348 31.035 23.4917 31.067 24.3127 30.687L27.4688 35.437L28.4998 37L29.2188 35.281L30.3748 32.594H35.1558L34.1248 31.062L30.9998 26.313L31.2498 24.438L32.4058 22.782L32.4377 22.751V22.72C33.1367 21.603 33.1678 20.192 32.4058 19.126L31.2498 17.469L30.8748 15.594H30.9058C30.9018 15.57 30.8788 15.554 30.8748 15.531C30.6948 14.223 29.6597 13.161 28.3438 13H28.3118L26.4368 12.75L24.7808 11.594C24.2636 11.2151 23.6408 11.0074 22.9998 11ZM22.9998 13.031C23.2298 13.031 23.4568 13.101 23.6248 13.219L25.4058 14.5L25.6248 14.656L25.8748 14.688L28.0627 15H28.0928C28.5428 15.05 28.8548 15.363 28.9058 15.813V15.875L29.3127 18.094L29.3428 18.313L29.4998 18.5L30.7808 20.281C31.0198 20.613 31.0508 21.176 30.7498 21.656L29.3438 23.625L29.3118 23.875L28.9998 26.063V26.093C28.9831 26.2493 28.9296 26.3994 28.8438 26.531L28.7808 26.563V26.593C28.6321 26.7715 28.419 26.884 28.1877 26.906H28.1248L25.8438 27.313L25.5938 27.343L25.4058 27.5L23.6248 28.781C23.2928 29.02 22.6987 29.051 22.2188 28.75L20.5938 27.5L20.4058 27.344L20.1248 27.312L17.9368 27H17.9067C17.7654 26.9875 17.629 26.9412 17.5093 26.865C17.3895 26.7887 17.2899 26.6848 17.2188 26.562C17.1523 26.4467 17.1098 26.3191 17.0938 26.187V26.125L16.6877 23.844L16.6558 23.594L16.4998 23.406L15.2188 21.625C14.9798 21.293 14.9488 20.699 15.2498 20.219L16.4998 18.594L16.6558 18.406L16.6868 18.125L16.9688 16.031C16.9728 16.016 16.9958 16.016 16.9998 16C17.0621 15.7593 17.1877 15.5396 17.3635 15.3638C17.5394 15.1879 17.759 15.0623 17.9998 15C18.0158 14.996 18.0158 14.973 18.0308 14.969L20.1248 14.687L20.3748 14.657L20.5938 14.5L22.3748 13.219C22.5428 13.102 22.7698 13.031 22.9998 13.031ZM29.9058 28.25L31.4377 30.594H29.0298L28.7798 31.219L28.0928 32.812L25.9678 29.562L26.4358 29.219L28.4058 28.875V28.906C28.4288 28.902 28.4438 28.879 28.4678 28.875C28.9941 28.7991 29.4913 28.5832 29.9058 28.25ZM16.0938 28.281C16.528 28.6758 17.0735 28.9269 17.6558 29H17.6868L19.5938 29.25L20.0308 29.594L17.9058 32.812L17.2188 31.219L16.9688 30.594H14.5628L16.0938 28.281Z" fill="#ACACAC"/>
</svg>
