<svg width="45" height="45" viewBox="0 0 45 45" fill="none" xmlns="http://www.w3.org/2000/svg">
<circle cx="22.5" cy="22.5" r="21.15" stroke="#1D63FE" stroke-width="1.3"/>
<path d="M23 21C21.9 21 20.9583 20.6083 20.175 19.825C19.3917 19.0417 19 18.1 19 17C19 15.9 19.3917 14.9583 20.175 14.175C20.9583 13.3917 21.9 13 23 13C24.1 13 25.0417 13.3917 25.825 14.175C26.6083 14.9583 27 15.9 27 17C27 18.1 26.6083 19.0417 25.825 19.825C25.0417 20.6083 24.1 21 23 21ZM15 29V26.2C15 25.6333 15.146 25.1123 15.438 24.637C15.7293 24.1623 16.1167 23.8 16.6 23.55C17.6333 23.0333 18.6833 22.6457 19.75 22.387C20.8167 22.129 21.9 22 23 22C24.1 22 25.1833 22.129 26.25 22.387C27.3167 22.6457 28.3667 23.0333 29.4 23.55C29.8833 23.8 30.2707 24.1623 30.562 24.637C30.854 25.1123 31 25.6333 31 26.2V29H15Z" fill="#1D63FE"/>
</svg>
