<svg width="22" height="22" viewBox="0 0 22 22" fill="none" xmlns="http://www.w3.org/2000/svg">
<g id="akar-icons:linkedin-fill">
<path id="Vector" fill-rule="evenodd" clip-rule="evenodd" d="M8.64317 8.22159H12.0477V9.91743C12.5381 8.94209 13.7958 8.06576 15.685 8.06576C19.3068 8.06576 20.1666 10.0073 20.1666 13.5694V20.1667H16.4999V14.3807C16.4999 12.3521 16.0095 11.2081 14.761 11.2081C13.0294 11.2081 12.3098 12.441 12.3098 14.3798V20.1667H8.64317V8.22159ZM2.35575 20.0108H6.02242V8.06576H2.35575V20.0108ZM6.54767 4.17084C6.5478 4.47818 6.48685 4.78248 6.36836 5.06605C6.24986 5.34962 6.07618 5.60681 5.85742 5.82268C5.41412 6.26325 4.81408 6.50986 4.18909 6.50834C3.56519 6.50793 2.96654 6.26194 2.52259 5.82359C2.30461 5.607 2.13152 5.34952 2.01323 5.06591C1.89494 4.7823 1.83378 4.47813 1.83325 4.17084C1.83325 3.55026 2.08075 2.95626 2.5235 2.51809C2.96706 2.07916 3.56597 1.83307 4.19 1.83334C4.81517 1.83334 5.41467 2.07993 5.85742 2.51809C6.29925 2.95626 6.54767 3.55026 6.54767 4.17084Z" fill="#1A183E"/>
<rect x="1" y="1" width="20" height="20" stroke="white" stroke-width="2"/>
</g>
</svg>
