<svg width="30" height="30" viewBox="0 0 30 30" fill="none" xmlns="http://www.w3.org/2000/svg">
    <g id="ant-design:form-outlined">
        <path id="Vector"
            d="M26.4844 15H24.8438C24.7148 15 24.6094 15.1055 24.6094 15.2344V24.6094H5.39062V5.39062H14.7656C14.8945 5.39062 15 5.28516 15 5.15625V3.51562C15 3.38672 14.8945 3.28125 14.7656 3.28125H4.21875C3.7002 3.28125 3.28125 3.7002 3.28125 4.21875V25.7812C3.28125 26.2998 3.7002 26.7188 4.21875 26.7188H25.7812C26.2998 26.7188 26.7188 26.2998 26.7188 25.7812V15.2344C26.7188 15.1055 26.6133 15 26.4844 15Z"
            fill="#fff" />
        <path id="Vector_2"
            d="M10.4268 15.6709L10.3711 19.1543C10.3682 19.415 10.5791 19.6289 10.8399 19.6289H10.8516L14.3086 19.5439C14.3672 19.541 14.4258 19.5176 14.4668 19.4766L26.6514 7.31836C26.7422 7.22754 26.7422 7.07812 26.6514 6.9873L23.0098 3.34863C22.9629 3.30176 22.9043 3.28125 22.8428 3.28125C22.7813 3.28125 22.7227 3.30469 22.6758 3.34863L10.4942 15.5068C10.4519 15.5511 10.4278 15.6097 10.4268 15.6709ZM12.2871 16.3623L22.8428 5.83008L24.167 7.15137L13.6055 17.6895L12.2666 17.7217L12.2871 16.3623Z"
            fill="#fff" />
    </g>
</svg>