<svg width="30" height="30" viewBox="0 0 30 30" fill="none" xmlns="http://www.w3.org/2000/svg">
    <g id="carbon:course">
        <path id="Vector"
            d="M22.5 28.125H7.5C7.00287 28.1245 6.52625 27.9268 6.17472 27.5753C5.8232 27.2238 5.6255 26.7471 5.625 26.25V3.75C5.6255 3.25287 5.8232 2.77625 6.17472 2.42472C6.52625 2.0732 7.00287 1.8755 7.5 1.875H22.5C22.9971 1.8755 23.4738 2.0732 23.8253 2.42472C24.1768 2.77625 24.3745 3.25287 24.375 3.75V19.3294L19.6875 16.9856L15 19.3294V3.75H7.5V26.25H22.5V22.5H24.375V26.25C24.3743 26.7471 24.1765 27.2235 23.825 27.575C23.4735 27.9265 22.9971 28.1243 22.5 28.125ZM19.6875 14.8894L22.5 16.2956V3.75H16.875V16.2956L19.6875 14.8894Z"
            fill="#fff" />
    </g>
</svg>