<svg width="29" height="29" viewBox="0 0 29 29" fill="none" xmlns="http://www.w3.org/2000/svg">
    <g id="healthicons:i-exam-qualification-outline">
        <g id="Group">
            <path id="Vector"
                d="M9.0612 19.332C8.90096 19.332 8.74729 19.3957 8.63399 19.509C8.52068 19.6223 8.45703 19.776 8.45703 19.9362C8.45703 20.0964 8.52068 20.2501 8.63399 20.3634C8.74729 20.4767 8.90096 20.5404 9.0612 20.5404H19.9362C20.0964 20.5404 20.2501 20.4767 20.3634 20.3634C20.4767 20.2501 20.5404 20.0964 20.5404 19.9362C20.5404 19.776 20.4767 19.6223 20.3634 19.509C20.2501 19.3957 20.0964 19.332 19.9362 19.332H9.0612ZM8.45703 22.3529C8.45703 22.1926 8.52068 22.039 8.63399 21.9257C8.74729 21.8124 8.90096 21.7487 9.0612 21.7487H16.3112C16.4714 21.7487 16.6251 21.8124 16.7384 21.9257C16.8517 22.039 16.9154 22.1926 16.9154 22.3529C16.9154 22.5131 16.8517 22.6668 16.7384 22.7801C16.6251 22.8934 16.4714 22.957 16.3112 22.957H9.0612C8.90096 22.957 8.74729 22.8934 8.63399 22.7801C8.52068 22.6668 8.45703 22.5131 8.45703 22.3529Z"
                fill="#fff" />
            <path id="Vector_2" fill-rule="evenodd" clip-rule="evenodd"
                d="M12.6397 9.43418C12.5938 9.32411 12.5164 9.23008 12.4172 9.16394C12.3179 9.09779 12.2013 9.0625 12.0821 9.0625C11.9628 9.0625 11.8462 9.09779 11.747 9.16394C11.6478 9.23008 11.5703 9.32411 11.5244 9.43418L9.26364 14.8596C9.26003 14.868 9.25661 14.8764 9.25337 14.885L8.5036 16.6842C8.44191 16.8321 8.4415 16.9984 8.50245 17.1466C8.56341 17.2948 8.68074 17.4127 8.82864 17.4744C8.97654 17.5361 9.14288 17.5365 9.29108 17.4756C9.43928 17.4146 9.5572 17.2973 9.61889 17.1494L10.2194 15.7085H13.9447L14.5453 17.1494C14.607 17.2973 14.7249 17.4146 14.8731 17.4756C15.0213 17.5365 15.1876 17.5361 15.3355 17.4744C15.4834 17.4127 15.6007 17.2948 15.6617 17.1466C15.7227 16.9984 15.7222 16.8321 15.6606 16.6842L14.9108 14.885C14.9075 14.8764 14.9041 14.868 14.9005 14.8596L12.6397 9.43418ZM12.0821 11.2376L13.4415 14.5001H10.7227L12.0821 11.2376Z"
                fill="#fff" />
            <path id="Vector_3"
                d="M18.1237 12.6875C18.2839 12.6875 18.4376 12.7512 18.5509 12.8645C18.6642 12.9778 18.7279 13.1314 18.7279 13.2917V14.5H19.9362C20.0964 14.5 20.2501 14.5637 20.3634 14.677C20.4767 14.7903 20.5404 14.9439 20.5404 15.1042C20.5404 15.2644 20.4767 15.4181 20.3634 15.5314C20.2501 15.6447 20.0964 15.7083 19.9362 15.7083H18.7279V16.9167C18.7279 17.0769 18.6642 17.2306 18.5509 17.3439C18.4376 17.4572 18.2839 17.5208 18.1237 17.5208C17.9635 17.5208 17.8098 17.4572 17.6965 17.3439C17.5832 17.2306 17.5195 17.0769 17.5195 16.9167V15.7083H16.3112C16.151 15.7083 15.9973 15.6447 15.884 15.5314C15.7707 15.4181 15.707 15.2644 15.707 15.1042C15.707 14.9439 15.7707 14.7903 15.884 14.677C15.9973 14.5637 16.151 14.5 16.3112 14.5H17.5195V13.2917C17.5195 13.1314 17.5832 12.9778 17.6965 12.8645C17.8098 12.7512 17.9635 12.6875 18.1237 12.6875Z"
                fill="#fff" />
            <path id="Vector_4" fill-rule="evenodd" clip-rule="evenodd"
                d="M22.9577 9.06185L16.916 2.41602H8.45768C7.81674 2.41602 7.20205 2.67063 6.74884 3.12384C6.29563 3.57705 6.04102 4.19174 6.04102 4.83268V24.166C6.04102 24.807 6.29563 25.4216 6.74884 25.8749C7.20205 26.3281 7.81674 26.5827 8.45768 26.5827H20.541C21.182 26.5827 21.7966 26.3281 22.2499 25.8749C22.7031 25.4216 22.9577 24.807 22.9577 24.166V9.06185ZM16.3118 9.06185C16.3118 9.22208 16.3755 9.37576 16.4888 9.48906C16.6021 9.60236 16.7558 9.66602 16.916 9.66602H21.7493V24.166C21.7493 24.4865 21.622 24.7938 21.3954 25.0204C21.1688 25.247 20.8615 25.3743 20.541 25.3743H8.45768C8.13721 25.3743 7.82987 25.247 7.60326 25.0204C7.37666 24.7938 7.24935 24.4865 7.24935 24.166V4.83268C7.24935 4.51221 7.37666 4.20487 7.60326 3.97826C7.82987 3.75166 8.13721 3.62435 8.45768 3.62435H16.3118V9.06185ZM20.7754 8.45768L17.5202 4.87679V8.45768H20.7754Z"
                fill="#fff" />
        </g>
    </g>
</svg>