<svg width="43" height="43" viewBox="0 0 43 43" fill="none" xmlns="http://www.w3.org/2000/svg">
    <g id="material-symbols:app-registration">
        <path id="Vector"
            d="M10.7493 35.8327C9.76393 35.8327 8.92065 35.4821 8.21952 34.781C7.51718 34.0786 7.16602 33.2348 7.16602 32.2493C7.16602 31.2639 7.51718 30.4201 8.21952 29.7177C8.92065 29.0166 9.76393 28.666 10.7493 28.666C11.7348 28.666 12.578 29.0166 13.2792 29.7177C13.9815 30.4201 14.3327 31.2639 14.3327 32.2493C14.3327 33.2348 13.9815 34.0786 13.2792 34.781C12.578 35.4821 11.7348 35.8327 10.7493 35.8327ZM10.7493 25.0827C9.76393 25.0827 8.92065 24.7315 8.21952 24.0292C7.51718 23.328 7.16602 22.4848 7.16602 21.4993C7.16602 20.5139 7.51718 19.6701 8.21952 18.9677C8.92065 18.2666 9.76393 17.916 10.7493 17.916C11.7348 17.916 12.578 18.2666 13.2792 18.9677C13.9815 19.6701 14.3327 20.5139 14.3327 21.4993C14.3327 22.4848 13.9815 23.328 13.2792 24.0292C12.578 24.7315 11.7348 25.0827 10.7493 25.0827ZM10.7493 14.3327C9.76393 14.3327 8.92065 13.9815 8.21952 13.2792C7.51718 12.578 7.16602 11.7348 7.16602 10.7493C7.16602 9.76393 7.51718 8.92065 8.21952 8.21952C8.92065 7.51718 9.76393 7.16602 10.7493 7.16602C11.7348 7.16602 12.578 7.51718 13.2792 8.21952C13.9815 8.92065 14.3327 9.76393 14.3327 10.7493C14.3327 11.7348 13.9815 12.578 13.2792 13.2792C12.578 13.9815 11.7348 14.3327 10.7493 14.3327ZM21.4993 25.0827C20.5139 25.0827 19.6707 24.7315 18.9695 24.0292C18.2672 23.328 17.916 22.4848 17.916 21.4993C17.916 20.5139 18.2672 19.6701 18.9695 18.9677C19.6707 18.2666 20.5139 17.916 21.4993 17.916C22.4848 17.916 23.3286 18.2666 24.031 18.9677C24.7321 19.6701 25.0827 20.5139 25.0827 21.4993L21.4993 25.0827ZM21.4993 14.3327C20.5139 14.3327 19.6707 13.9815 18.9695 13.2792C18.2672 12.578 17.916 11.7348 17.916 10.7493C17.916 9.76393 18.2672 8.92065 18.9695 8.21952C19.6707 7.51718 20.5139 7.16602 21.4993 7.16602C22.4848 7.16602 23.3286 7.51718 24.031 8.21952C24.7321 8.92065 25.0827 9.76393 25.0827 10.7493C25.0827 11.7348 24.7321 12.578 24.031 13.2792C23.3286 13.9815 22.4848 14.3327 21.4993 14.3327ZM19.7077 35.8327V32.0254L29.2035 22.5296L33.0108 26.3368L23.515 35.8327H19.7077ZM32.2493 14.3327C31.2639 14.3327 30.4201 13.9815 29.7177 13.2792C29.0166 12.578 28.666 11.7348 28.666 10.7493C28.666 9.76393 29.0166 8.92065 29.7177 8.21952C30.4201 7.51718 31.2639 7.16602 32.2493 7.16602C33.2348 7.16602 34.0786 7.51718 34.781 8.21952C35.4821 8.92065 35.8327 9.76393 35.8327 10.7493C35.8327 11.7348 35.4821 12.578 34.781 13.2792C34.0786 13.9815 33.2348 14.3327 32.2493 14.3327ZM34.265 25.0827L30.4577 21.2754L31.7566 19.9764C32.115 19.6181 32.5408 19.4389 33.0341 19.4389C33.5262 19.4389 33.9365 19.6181 34.265 19.9764L35.5639 21.2754C35.9223 21.6039 36.1014 22.0142 36.1014 22.5063C36.1014 22.9996 35.9223 23.4254 35.5639 23.7837L34.265 25.0827Z"
            fill="black" />
    </g>
</svg>