<svg width="43" height="43" viewBox="0 0 43 43" fill="none" xmlns="http://www.w3.org/2000/svg">
    <g id="material-symbols:model-training">
        <path id="Vector"
            d="M9.22708 35.9813C8.00278 34.5479 7.05439 32.9426 6.38192 31.1653C5.71064 29.3891 5.375 27.5007 5.375 25.5C5.375 21.0208 6.94271 17.2135 10.0781 14.0781C13.2135 10.9427 17.0208 9.375 21.5 9.375H21.8583L18.9917 6.50833L21.5 4L28.6667 11.1667L21.5 18.3333L18.9469 15.7802L21.7687 12.9583H21.5C18.0361 12.9583 15.0799 14.1826 12.6313 16.6313C10.1826 19.0799 8.95833 22.0361 8.95833 25.5C8.95833 27.0229 9.20439 28.4562 9.6965 29.8C10.1898 31.1437 10.8844 32.3531 11.7802 33.4281L9.22708 35.9813ZM19.7083 35.3542C19.7083 34.6674 19.4772 33.9883 19.015 33.317C18.5515 32.6446 18.0361 31.9428 17.4688 31.2118C16.9014 30.4796 16.386 29.7176 15.9225 28.9257C15.4603 28.1349 15.2292 27.2917 15.2292 26.3958C15.2292 24.6639 15.8413 23.1858 17.0656 21.9615C18.2899 20.7372 19.7681 20.125 21.5 20.125C23.2319 20.125 24.7101 20.7372 25.9344 21.9615C27.1587 23.1858 27.7708 24.6639 27.7708 26.3958C27.7708 27.2917 27.5397 28.1349 27.0775 28.9257C26.614 29.7176 26.0986 30.4796 25.5312 31.2118C24.9639 31.9428 24.4485 32.6446 23.985 33.317C23.5228 33.9883 23.2917 34.6674 23.2917 35.3542H19.7083ZM19.7083 39.8333V37.1458H23.2917V39.8333H19.7083ZM33.7729 35.9813L31.2198 33.4281C32.1156 32.3531 32.8096 31.1437 33.3017 29.8C33.795 28.4562 34.0417 27.0229 34.0417 25.5C34.0417 23.5292 33.6308 21.7005 32.809 20.0139C31.9884 18.3262 30.8615 16.9149 29.4281 15.7802L31.9813 13.2271C33.7132 14.7201 35.0868 16.519 36.1021 18.6236C37.1174 20.7294 37.625 23.0215 37.625 25.5C37.625 27.5007 37.2894 29.3891 36.6181 31.1653C35.9456 32.9426 34.9972 34.5479 33.7729 35.9813Z"
            fill="#1A183E" />
    </g>
</svg>