<svg width="25" height="25" viewBox="0 0 25 25" fill="none" xmlns="http://www.w3.org/2000/svg">
    <g id="mdi:application-edit-outline">
        <path id="Vector"
            d="M11.4577 20.834V22.9173H3.12435C1.97852 22.9173 1.04102 21.9798 1.04102 20.834V4.16732C1.04102 3.02148 1.97852 2.08398 3.12435 2.08398H21.8743C23.0202 2.08398 23.9577 3.02148 23.9577 4.16732V12.6048L23.7493 12.3965C23.2285 11.8757 22.6035 11.5632 21.8743 11.5632V6.25065H3.12435V20.834H11.4577ZM22.291 13.8548L23.6452 15.209C23.8535 15.4173 23.8535 15.834 23.6452 16.0423L22.6035 17.084L20.416 14.8965L21.4577 13.8548C21.5618 13.7507 21.666 13.6465 21.8743 13.6465C22.0827 13.6465 22.1868 13.7507 22.291 13.8548ZM21.9785 17.6048L15.7285 23.959H13.541V21.7715L19.8952 15.4173L21.9785 17.6048Z"
            fill="#fff" />
    </g>
</svg>