<svg width="70" height="70" viewBox="0 0 70 70" fill="none" xmlns="http://www.w3.org/2000/svg">
<g id="octicon:graph-16">
<path id="Vector" d="M6.5625 7.65625V59.0625H66.7188C67.589 59.0625 68.4236 59.4082 69.0389 60.0236C69.6543 60.6389 70 61.4735 70 62.3438C70 63.214 69.6543 64.0486 69.0389 64.6639C68.4236 65.2793 67.589 65.625 66.7188 65.625H3.28125C2.41101 65.625 1.57641 65.2793 0.961056 64.6639C0.345702 64.0486 0 63.214 0 62.3438L0 7.65625C0 6.78601 0.345702 5.95141 0.961056 5.33606C1.57641 4.7207 2.41101 4.375 3.28125 4.375C4.15149 4.375 4.98609 4.7207 5.60144 5.33606C6.2168 5.95141 6.5625 6.78601 6.5625 7.65625ZM69.0375 18.725L46.0687 41.6937C45.4535 42.3082 44.6195 42.6534 43.75 42.6534C42.8805 42.6534 42.0465 42.3082 41.4313 41.6937L30.625 30.8875L18.725 42.7875C18.1026 43.3668 17.2799 43.6822 16.4297 43.6676C15.5796 43.6529 14.7683 43.3092 14.1662 42.7088C13.5658 42.1067 13.2221 41.2954 13.2074 40.4453C13.1928 39.5951 13.5082 38.7724 14.0875 38.15L28.3062 23.9312C28.9215 23.3168 29.7555 22.9716 30.625 22.9716C31.4945 22.9716 32.3285 23.3168 32.9438 23.9312L43.75 34.7375L64.4 14.0875C65.0224 13.5082 65.8451 13.1928 66.6953 13.2074C67.5454 13.2221 68.3567 13.5658 68.9587 14.1662C69.5592 14.7683 69.9029 15.5796 69.9176 16.4297C69.9322 17.2799 69.6168 18.1026 69.0375 18.725Z" fill="white"/>
</g>
</svg>
