<svg width="27" height="27" viewBox="0 0 27 27" fill="none" xmlns="http://www.w3.org/2000/svg">
<g id="octicon:home-16">
<path id="Vector" d="M11.6539 1.12064C12.1775 0.701203 12.8283 0.472656 13.4992 0.472656C14.17 0.472656 14.8209 0.701203 15.3444 1.12064L24.2038 8.20813C24.9041 8.76838 25.3125 9.6172 25.3125 10.5149V22.3595C25.3125 23.1427 25.0014 23.8939 24.4475 24.4477C23.8937 25.0015 23.1426 25.3126 22.3594 25.3126H16.4531C16.1175 25.3126 15.7955 25.1793 15.5582 24.9419C15.3208 24.7046 15.1875 24.3827 15.1875 24.047V15.1876H11.8125V24.047C11.8125 24.3827 11.6792 24.7046 11.4418 24.9419C11.2045 25.1793 10.8825 25.3126 10.5469 25.3126H4.64062C3.85741 25.3126 3.10627 25.0015 2.55245 24.4477C1.99863 23.8939 1.6875 23.1427 1.6875 22.3595V10.5133C1.6875 9.6172 2.09587 8.76838 2.79619 8.20813L11.6539 1.12064ZM13.7633 3.0967C13.6885 3.037 13.5957 3.00449 13.5 3.00449C13.4043 3.00449 13.3115 3.037 13.2367 3.0967L4.37738 10.1842C4.32774 10.2238 4.2877 10.2742 4.26023 10.3314C4.23277 10.3887 4.21859 10.4514 4.21875 10.5149V22.3595C4.21875 22.5924 4.40775 22.7814 4.64062 22.7814H9.28125V13.922C9.28125 13.5863 9.41459 13.2644 9.65194 13.0271C9.88929 12.7897 10.2112 12.6564 10.5469 12.6564H16.4531C16.7888 12.6564 17.1107 12.7897 17.3481 13.0271C17.5854 13.2644 17.7188 13.5863 17.7188 13.922V22.7814H22.3594C22.4713 22.7814 22.5786 22.7369 22.6577 22.6578C22.7368 22.5787 22.7812 22.4714 22.7812 22.3595V10.5133C22.7812 10.45 22.7669 10.3876 22.7394 10.3307C22.7119 10.2737 22.672 10.2237 22.6226 10.1842L13.7633 3.0967Z" fill="white"/>
</g>
</svg>
