<svg width="80" height="54" viewBox="0 0 80 54" fill="none" xmlns="http://www.w3.org/2000/svg">
<g id="share-group-member-icon 1" clip-path="url(#clip0_1485_7157)">
<path id="Vector" fill-rule="evenodd" clip-rule="evenodd" d="M0.56094 47.3205C0.487145 47.3205 0.414075 47.3058 0.345917 47.2773C0.277759 47.2488 0.215852 47.207 0.163744 47.1544C0.111635 47.1017 0.0703494 47.0392 0.0422517 46.9704C0.014154 46.9017 -0.000203381 46.828 2.17638e-06 46.7537C2.17638e-06 46.5931 0.0218772 46.434 0.0593772 46.2766C0.96094 39.0892 6.54531 37.1715 10.5078 36.1339C12.4906 35.6159 17.4234 33.6432 15.4578 30.9319C14.3563 29.4094 13.3578 28.3388 12.3594 26.7313C11.6391 25.6591 11.2594 24.7034 11.2594 23.9366C11.2594 23.1195 11.6891 22.1622 12.55 21.9465C12.4359 20.3012 12.3984 18.1363 12.475 16.3745C12.7484 13.3516 14.9 11.1237 17.6797 10.1365C18.7813 9.71456 18.2484 8.02989 19.4641 7.9921C22.3141 7.91495 26.9859 10.3648 28.8109 12.3549C29.875 13.5043 30.5578 15.0346 30.6719 17.0641L30.5578 22.137C31.0891 22.2913 31.4313 22.6346 31.5844 23.1699C31.7359 23.7823 31.5844 24.6262 31.0516 25.8134C31.0516 25.8512 31.0141 25.8512 31.0141 25.889C29.8406 27.8366 28.6188 29.126 27.2766 30.9319C26.6766 31.7365 26.7938 32.508 27.2922 33.2007C26.5725 33.622 25.8898 34.1045 25.2516 34.6429C22.6344 36.8566 20.6172 40.1646 19.9188 45.4358L19.8406 45.9019C19.8031 46.2026 19.7813 46.4514 19.7813 46.6356C19.7813 46.8686 19.8016 47.0969 19.8391 47.3205H0.56094ZM66.875 27.5028C74.1266 27.5028 80 33.4259 80 40.7282C80 48.0337 74.1219 53.9537 66.875 53.9537C59.625 53.9537 53.75 48.0305 53.75 40.7282C53.75 33.4212 59.6266 27.5028 66.875 27.5028ZM73.375 39.93L67.5797 45.0863V42.5152C64.4688 41.8854 62.4125 42.342 60.375 44.899C60.6625 40.4086 63.1094 37.5809 67.5797 37.3888V34.7736L73.375 39.93ZM23.8703 47.3268C23.4906 47.3268 23.1844 47.0182 23.1844 46.6356C23.1844 46.4388 23.2109 46.2451 23.2578 46.053C24.3563 37.2817 29.5734 35.3735 34.4031 34.1218C36.7219 33.5203 41.3469 31.176 40.7859 28.153C39.6156 27.0603 38.4547 25.5504 38.2531 23.299L38.1125 23.3021C37.7891 23.2974 37.475 23.2234 37.1828 23.0565C36.5375 22.6865 36.1828 21.978 36.0125 21.1703C35.6547 18.7016 35.5656 17.442 36.8703 16.8909L36.8813 16.8878C36.7188 13.8428 37.2297 9.36345 34.1266 8.4172C40.2531 0.790534 47.3156 -3.35973 52.6172 3.42618C58.525 3.73792 61.1594 12.1707 57.4906 16.8909H57.3359C58.6422 17.442 58.4453 18.8574 58.1937 21.1703C58.0234 21.978 57.6688 22.6865 57.0234 23.0565C56.7313 23.2234 56.4188 23.2974 56.0938 23.3021L55.9531 23.299C55.7516 25.5504 54.5875 27.0603 53.4172 28.153C53.2594 29.008 53.5156 29.8094 54.0172 30.532C51.8219 33.3361 50.5109 36.8787 50.5109 40.7282C50.5109 43.0726 50.9969 45.3052 51.875 47.3268H23.8703Z" fill="white"/>
</g>
<defs>
<clipPath id="clip0_1485_7157">
<rect width="80" height="53.9535" fill="white"/>
</clipPath>
</defs>
</svg>
