<svg width="80" height="54" viewBox="0 0 80 54" fill="none" xmlns="http://www.w3.org/2000/svg">
<g id="training-online-icon 1" clip-path="url(#clip0_1485_7153)">
<path id="Vector" fill-rule="evenodd" clip-rule="evenodd" d="M24.44 0H78.3527C79.2316 0 79.9542 0.710841 79.9542 1.57538V10.8163H79.9998V44.053V45.8973V46.2943H25.7225V44.053H77.7212V11.207H21.2303V3.15716C21.2303 1.42168 22.6756 0 24.44 0ZM0.00638936 26.4997C-0.195433 22.7853 2.90352 21.8376 7.10274 22.0809L12.4022 27.8893L17.591 22.1578L30.4426 22.0873C35.2993 22.6317 34.2772 27.6268 30.4426 27.8381H22.0311L20.0519 39.5317L18.5546 51.4047C18.1639 52.6599 17.3827 53.4796 16.2564 53.9023L8.94518 53.9535C7.47383 53.7358 6.59492 52.8904 6.33451 51.4047L5.19519 40.8318C2.2004 41.1135 1.19779 39.0258 0.885295 36.0032L0.00638936 26.4997ZM12.0832 6.25669C15.6835 6.25669 18.6001 9.12567 18.6001 12.6671C18.6001 16.2085 15.6835 19.0774 12.0832 19.0774C8.48294 19.0774 5.56628 16.2085 5.56628 12.6671C5.55977 9.13207 8.48294 6.25669 12.0832 6.25669ZM12.3306 25.1612L8.203 20.7105L9.42044 19.7563C11.2108 20.4927 12.9881 20.4927 14.746 19.7563L16.4126 20.7297L12.3306 25.1612ZM42.9946 2.86898C44.3032 2.86898 45.3644 3.91283 45.3644 5.20003C45.3644 6.48723 44.3032 7.53108 42.9946 7.53108C41.686 7.53108 40.6248 6.48723 40.6248 5.20003C40.6248 3.91283 41.686 2.86898 42.9946 2.86898ZM29.5116 2.86898C30.8202 2.86898 31.8814 3.91283 31.8814 5.20003C31.8814 6.48723 30.8202 7.53108 29.5116 7.53108C28.203 7.53108 27.1418 6.48723 27.1418 5.20003C27.1418 3.91283 28.203 2.86898 29.5116 2.86898ZM36.2498 2.86898C37.5584 2.86898 38.6196 3.91283 38.6196 5.20003C38.6196 6.48723 37.5584 7.53108 36.2498 7.53108C34.9413 7.53108 33.8801 6.48723 33.8801 5.20003C33.8801 3.91283 34.9413 2.86898 36.2498 2.86898ZM71.035 3.92564C70.7941 3.68869 70.7941 3.29805 71.035 3.0611C71.2759 2.82415 71.673 2.82415 71.9139 3.0611L73.216 4.3419L74.518 3.0611C74.7589 2.82415 75.1561 2.82415 75.3969 3.0611C75.6378 3.29805 75.6378 3.68869 75.3969 3.92564L74.0949 5.20643L75.3969 6.48723C75.6378 6.72418 75.6378 7.11482 75.3969 7.35177C75.1561 7.58871 74.7589 7.58871 74.518 7.35177L73.216 6.07097L71.9139 7.35177C71.673 7.58871 71.2759 7.58871 71.035 7.35177C70.7941 7.11482 70.7941 6.72418 71.035 6.48723L72.3371 5.20643L71.035 3.92564Z" fill="white"/>
</g>
<defs>
<clipPath id="clip0_1485_7153">
<rect width="80" height="53.9535" fill="white"/>
</clipPath>
</defs>
</svg>
