<svg width="78" height="53" viewBox="0 0 78 53" fill="none" xmlns="http://www.w3.org/2000/svg">
<g id="undraw_content_re_33px 1">
<g clip-path="url(#clip0_1469_4)">
<path id="Vector" d="M77.2409 9.94145e-10H24.4618C24.2608 0.000176444 24.068 0.080566 23.9259 0.223521C23.7837 0.366475 23.7038 0.560312 23.7036 0.762477V19.9477H36.4767C36.8225 19.9481 37.154 20.0864 37.3985 20.3323C37.643 20.5782 37.7805 20.9116 37.7809 21.2593V37.4908H77.2409C77.3506 37.4908 77.4589 37.4669 77.5584 37.4207C77.658 37.3745 77.7463 37.3071 77.8175 37.2232C77.8235 37.2166 77.829 37.2096 77.834 37.2022C77.8792 37.1466 77.9159 37.0844 77.9427 37.0177C77.9808 36.9261 78.0003 36.8276 78 36.7283V0.762477C77.9998 0.560172 77.9197 0.36623 77.7774 0.22326C77.6351 0.0802911 77.4421 -1.03167e-05 77.2409 9.94145e-10Z" fill="#F2F2F2"/>
<path id="Vector_2" d="M77.8911 3.05613H23.8115V3.2741H77.8911V3.05613Z" fill="#CCCCCC"/>
<path id="Vector_3" d="M25.6539 2.28887C26.013 2.28887 26.3041 1.99611 26.3041 1.63496C26.3041 1.27381 26.013 0.981045 25.6539 0.981045C25.2947 0.981045 25.0036 1.27381 25.0036 1.63496C25.0036 1.99611 25.2947 2.28887 25.6539 2.28887Z" fill="#CCCCCC"/>
<path id="Vector_4" d="M27.5234 2.28887C27.8825 2.28887 28.1736 1.99611 28.1736 1.63496C28.1736 1.27381 27.8825 0.981045 27.5234 0.981045C27.1642 0.981045 26.8731 1.27381 26.8731 1.63496C26.8731 1.99611 27.1642 2.28887 27.5234 2.28887Z" fill="#CCCCCC"/>
<path id="Vector_5" d="M29.3928 2.28887C29.7519 2.28887 30.0431 1.99611 30.0431 1.63496C30.0431 1.27381 29.7519 0.981045 29.3928 0.981045C29.0337 0.981045 28.7426 1.27381 28.7426 1.63496C28.7426 1.99611 29.0337 2.28887 29.3928 2.28887Z" fill="#CCCCCC"/>
<path id="Vector_6" d="M64.4157 7.81539H37.287C36.9872 7.81539 36.6997 7.93515 36.4877 8.14832C36.2758 8.3615 36.1567 8.65063 36.1567 8.95211C36.1567 9.25358 36.2758 9.54271 36.4877 9.75589C36.6997 9.96907 36.9872 10.0888 37.287 10.0888H64.4157C64.7155 10.0888 65.003 9.96907 65.215 9.75589C65.427 9.54271 65.5461 9.25358 65.5461 8.95211C65.5461 8.65063 65.427 8.3615 65.215 8.14832C65.003 7.93515 64.7155 7.81539 64.4157 7.81539ZM64.4157 9.91395H37.287C37.0334 9.91395 36.7901 9.81261 36.6107 9.63223C36.4313 9.45185 36.3306 9.2072 36.3306 8.95211C36.3306 8.69701 36.4313 8.45236 36.6107 8.27198C36.7901 8.0916 37.0334 7.99027 37.287 7.99027H64.4157C64.6694 7.99027 64.9126 8.0916 65.092 8.27198C65.2714 8.45236 65.3721 8.69701 65.3721 8.95211C65.3721 9.2072 65.2714 9.45185 65.092 9.63223C64.9126 9.81261 64.6694 9.91395 64.4157 9.91395Z" fill="#CCCCCC"/>
<path id="Vector_7" d="M72.7169 16.8715H45.5882C45.2885 16.8715 45.0009 16.9913 44.789 17.2045C44.577 17.4177 44.4579 17.7068 44.4579 18.0083C44.4579 18.3097 44.577 18.5989 44.789 18.812C45.0009 19.0252 45.2885 19.145 45.5882 19.145H72.7169C73.0167 19.145 73.3042 19.0252 73.5162 18.812C73.7282 18.5989 73.8473 18.3097 73.8473 18.0083C73.8473 17.7068 73.7282 17.4177 73.5162 17.2045C73.3042 16.9913 73.0167 16.8715 72.7169 16.8715Z" fill="#FBDFFC"/>
<path id="Vector_8" d="M72.7169 21.0687H45.5882C45.2885 21.0687 45.0009 21.1884 44.789 21.4016C44.577 21.6148 44.4579 21.9039 44.4579 22.2054C44.4579 22.5069 44.577 22.796 44.789 23.0092C45.0009 23.2223 45.2885 23.3421 45.5882 23.3421H72.7169C73.0167 23.3421 73.3042 23.2223 73.5162 23.0092C73.7282 22.796 73.8473 22.5069 73.8473 22.2054C73.8473 21.9039 73.7282 21.6148 73.5162 21.4016C73.3042 21.1884 73.0167 21.0687 72.7169 21.0687Z" fill="#FBDFFC"/>
<path id="Vector_9" d="M72.7169 25.2658H45.5882C45.2885 25.2658 45.0009 25.3855 44.789 25.5987C44.577 25.8119 44.4579 26.101 44.4579 26.4025C44.4579 26.704 44.577 26.9931 44.789 27.2063C45.0009 27.4195 45.2885 27.5392 45.5882 27.5392H72.7169C73.0167 27.5392 73.3042 27.4195 73.5162 27.2063C73.7282 26.9931 73.8473 26.704 73.8473 26.4025C73.8473 26.101 73.7282 25.8119 73.5162 25.5987C73.3042 25.3855 73.0167 25.2658 72.7169 25.2658Z" fill="#FBDFFC"/>
<path id="Vector_10" d="M41.2042 14.9916H28.8554C28.5905 14.9919 28.3366 15.0979 28.1493 15.2862C27.962 15.4745 27.8566 15.7299 27.8563 15.9963V19.9477H28.0302V15.9963C28.0306 15.7763 28.1176 15.5654 28.2723 15.4099C28.427 15.2543 28.6367 15.1668 28.8554 15.1665H41.2042C41.4229 15.1667 41.6327 15.2541 41.7874 15.4097C41.9421 15.5653 42.0291 15.7763 42.0293 15.9963V28.4145C42.0291 28.6345 41.9421 28.8455 41.7874 29.0011C41.6327 29.1566 41.4229 29.2441 41.2042 29.2443H37.7809V29.4192H41.2042C41.4691 29.419 41.7231 29.3131 41.9104 29.1247C42.0977 28.9363 42.203 28.6809 42.2032 28.4145V15.9963C42.203 15.7299 42.0977 15.4744 41.9104 15.286C41.7231 15.0977 41.4691 14.9918 41.2042 14.9916Z" fill="#CCCCCC"/>
<path id="Vector_11" d="M9.18408 27.7681C9.1404 27.7699 7.27897 27.6401 7.23145 27.6385L7.39866 25.9599L8.45888 25.9278L10.4848 22.1543C10.2038 21.6155 10.5496 20.9005 11.1457 20.7903C12.3468 20.5158 12.7594 22.4161 11.5546 22.669L9.8789 27.28C9.82632 27.4229 9.73161 27.5462 9.60743 27.6334C9.48326 27.7206 9.33555 27.7676 9.18408 27.7681Z" fill="#FFB8B8"/>
<path id="Vector_12" d="M4.27659 28.6327C2.50526 28.6371 2.34977 25.945 4.12502 25.7553C8.81936 25.47 8.2253 24.2844 8.5818 27.7817C8.59275 27.8855 8.56232 27.9893 8.49721 28.0705C8.43209 28.1517 8.3376 28.2036 8.23446 28.2149L4.43035 28.6244C4.37928 28.6299 4.32795 28.6327 4.27659 28.6327Z" fill="#F305F8"/>
<path id="Vector_13" d="M3.87236 20.1212C6.3126 21.5176 4.30929 25.2021 1.82356 23.8901C-0.616593 22.4937 1.38672 18.8093 3.87236 20.1212Z" fill="#FFB8B8"/>
<path id="Vector_14" d="M6.09081 51.8364L7.15674 51.8364L7.66393 47.7015L6.09064 47.7016L6.09081 51.8364Z" fill="#FFB8B8"/>
<path id="Vector_15" d="M5.86242 52.8319L9.2127 52.8317C9.19991 51.0933 6.95909 51.5942 5.86237 51.5302L5.86242 52.8319Z" fill="#2F2E41"/>
<path id="Vector_16" d="M1.48241 51.8364L2.54834 51.8364L3.05553 47.7015L1.48224 47.7016L1.48241 51.8364Z" fill="#FFB8B8"/>
<path id="Vector_17" d="M1.25403 52.8319L4.6043 52.8317C4.59151 51.0933 2.3507 51.5942 1.25397 51.5302L1.25403 52.8319Z" fill="#2F2E41"/>
<path id="Vector_18" d="M2.69388 50.3923C2.43625 50.3212 1.03627 50.5363 0.871044 50.254C0.294039 44.4383 0.4223 38.7467 1.70314 35.6192L6.10704 35.3481C7.09183 37.1559 9.35555 49.1526 7.99004 49.882L6.23411 49.945C6.13399 49.9483 6.03578 49.9168 5.95599 49.8559C5.8762 49.795 5.81969 49.7083 5.79594 49.6104L4.32693 41.2059C3.96111 40.6917 3.24202 50.057 3.12327 50.022C3.10778 50.1252 3.05589 50.2195 2.97707 50.2875C2.89824 50.3555 2.79773 50.3927 2.69388 50.3923Z" fill="#2F2E41"/>
<path id="Vector_19" d="M1.5633 36.3543C-0.660172 34.015 0.758101 27.7433 0.68632 27.8767C0.692411 27.7231 1.19602 25.3571 2.49876 24.9687C3.53232 24.6257 4.67629 25.6518 4.8174 26.6896L6.36568 35.8842C6.37369 35.9343 6.36988 35.9855 6.35457 36.0338C6.33926 36.0821 6.31287 36.1261 6.27754 36.1623C6.35366 36.4006 1.67215 36.3065 1.5633 36.3543Z" fill="#F305F8"/>
<path id="Vector_20" d="M2.28489 21.7667C2.48016 21.6426 2.5764 21.4297 2.69006 21.2357C3.28875 20.8926 3.977 21.7227 4.61023 21.4129C6.40078 19.6843 4.56029 19.1743 2.91117 19.0831C2.5216 19.0349 2.1902 19.1738 1.89566 19.4034C-1.39853 19.1504 0.181317 23.5553 2.26035 24.137C2.62742 24.2987 2.90278 23.9715 2.57907 23.674C2.1312 23.2018 1.57639 22.2514 2.28489 21.7667Z" fill="#2F2E41"/>
<path id="Vector_21" d="M36.4766 19.7728H12.6521C12.2603 19.7734 11.8846 19.9302 11.6075 20.2088C11.3304 20.4874 11.1745 20.8652 11.174 21.2593V51.5135C11.1745 51.9076 11.3304 52.2854 11.6075 52.564C11.8846 52.8427 12.2603 52.9994 12.6521 53H36.4766C36.8685 52.9994 37.2442 52.8427 37.5212 52.564C37.7983 52.2854 37.9543 51.9076 37.9548 51.5135V21.2593C37.9543 20.8652 37.7983 20.4874 37.5212 20.2088C37.2442 19.9302 36.8685 19.7734 36.4766 19.7728ZM37.7809 51.5135C37.7805 51.8612 37.6429 52.1946 37.3984 52.4405C37.1539 52.6864 36.8224 52.8247 36.4766 52.8251H12.6521C12.3063 52.8247 11.9748 52.6864 11.7303 52.4405C11.4858 52.1946 11.3483 51.8612 11.3479 51.5135V21.2593C11.3483 20.9116 11.4858 20.5782 11.7303 20.3323C11.9748 20.0864 12.3063 19.9481 12.6521 19.9477H36.4766C36.8224 19.9481 37.1539 20.0864 37.3984 20.3323C37.6429 20.5782 37.7805 20.9116 37.7809 21.2593V51.5135Z" fill="#3F3D56"/>
<path id="Vector_22" d="M5.93932 32.5039C5.1541 32.5933 4.80937 30.7558 4.50916 30.2876L6.07295 29.6769L6.58179 30.6128L10.8448 30.7194C10.8702 30.6849 10.8978 30.6521 10.9276 30.6214C11.7731 29.7312 13.1499 31.065 12.3076 31.9533C12.2147 32.0526 12.1019 32.131 11.9767 32.1832C11.8515 32.2355 11.7166 32.2605 11.5811 32.2565C11.4456 32.2526 11.3124 32.2198 11.1904 32.1604C11.0684 32.1009 10.9603 32.0161 10.8732 31.9116C10.768 31.9192 6.04228 32.5066 5.93932 32.5039Z" fill="#FFB8B8"/>
<path id="Vector_23" d="M4.78124 31.6267C4.51979 31.8801 2.51263 28.3238 2.36599 28.2233C1.35177 26.6381 3.73944 25.0729 4.77114 26.6496L6.8577 29.8743C6.91418 29.9618 6.93384 30.0682 6.91236 30.1703C6.89089 30.2723 6.83004 30.3616 6.74315 30.4186C6.64806 30.4634 4.84835 31.723 4.78124 31.6267Z" fill="#F305F8"/>
<path id="Vector_24" d="M31.7813 40.7147H17.3475C15.8731 40.7075 15.8669 38.449 17.3476 38.4412H31.7813C33.2547 38.4482 33.2627 40.7069 31.7813 40.7147Z" fill="#CCCCCC"/>
<path id="Vector_25" d="M31.7813 44.9118H17.3475C15.8731 44.9047 15.8669 42.6461 17.3476 42.6384H31.7813C33.2547 42.6453 33.2627 44.904 31.7813 44.9118Z" fill="#CCCCCC"/>
<path id="Vector_26" d="M31.7813 49.1089H17.3475C15.8731 49.1018 15.8669 46.8432 17.3476 46.8355H31.7813C33.2547 46.8424 33.2627 49.1012 31.7813 49.1089Z" fill="#CCCCCC"/>
<path id="Vector_27" d="M37.1723 22.5709C36.7252 22.5709 36.2881 22.4375 35.9163 22.1877C35.5445 21.9379 35.2548 21.5829 35.0836 21.1675C34.9125 20.752 34.8678 20.2949 34.955 19.8539C35.0422 19.4129 35.2575 19.0078 35.5737 18.6899C35.8899 18.3719 36.2927 18.1554 36.7312 18.0677C37.1698 17.98 37.6243 18.025 38.0374 18.1971C38.4505 18.3691 38.8036 18.6605 39.052 19.0344C39.3004 19.4083 39.433 19.8478 39.433 20.2974C39.4323 20.9002 39.1939 21.478 38.7701 21.9043C38.3463 22.3305 37.7717 22.5702 37.1723 22.5709Z" fill="#F305F8"/>
<path id="Vector_28" d="M38.2157 20.21H37.2592V19.117C37.2592 19.0938 37.2501 19.0716 37.2338 19.0552C37.2175 19.0388 37.1954 19.0296 37.1723 19.0296C37.1492 19.0296 37.1271 19.0388 37.1108 19.0552C37.0945 19.0716 37.0853 19.0938 37.0853 19.117V20.21H36.1289C36.1058 20.21 36.0837 20.2192 36.0674 20.2356C36.0511 20.252 36.0419 20.2743 36.0419 20.2974C36.0419 20.3206 36.0511 20.3429 36.0674 20.3593C36.0837 20.3757 36.1058 20.3849 36.1289 20.3849H37.0853V21.4779C37.0853 21.5011 37.0945 21.5233 37.1108 21.5397C37.1271 21.5561 37.1492 21.5653 37.1723 21.5653C37.1954 21.5653 37.2175 21.5561 37.2338 21.5397C37.2501 21.5233 37.2592 21.5011 37.2592 21.4779V20.3849H38.2157C38.2388 20.3849 38.2609 20.3757 38.2772 20.3593C38.2935 20.3429 38.3027 20.3206 38.3027 20.2974C38.3027 20.2743 38.2935 20.252 38.2772 20.2356C38.2609 20.2192 38.2388 20.21 38.2157 20.21Z" fill="white"/>
<path id="Vector_29" d="M31.5205 35.7131H17.6083C17.228 35.7127 16.8633 35.5605 16.5943 35.29C16.3254 35.0196 16.1741 34.6528 16.1736 34.2703V26.4357C16.1741 26.0532 16.3254 25.6865 16.5943 25.416C16.8633 25.1456 17.228 24.9934 17.6083 24.993H31.5205C31.9008 24.9934 32.2655 25.1456 32.5345 25.416C32.8034 25.6865 32.9547 26.0532 32.9552 26.4357V34.2703C32.9547 34.6528 32.8034 35.0196 32.5345 35.29C32.2655 35.5605 31.9008 35.7127 31.5205 35.7131Z" fill="#F305F8"/>
</g>
</g>
<defs>
<clipPath id="clip0_1469_4">
<rect width="78" height="53" rx="4" fill="white"/>
</clipPath>
</defs>
</svg>
