<svg width="81" height="70" viewBox="0 0 81 70" fill="none" xmlns="http://www.w3.org/2000/svg">
<g id="undraw_developer_activity_re_39tg 1" clip-path="url(#clip0_1469_98)">
<path id="Vector" d="M73.0327 36.4291C73.0433 45.0909 69.6689 53.4194 63.6189 59.6639C63.2541 60.0428 62.8795 60.4125 62.4951 60.7732C61.9094 61.3259 61.3041 61.8573 60.679 62.3672C54.8319 67.1468 47.5323 69.8327 39.958 69.9915C39.7057 69.9971 39.4523 70 39.1981 70C33.1574 70 25.5596 66.7987 18.6647 62.3672C18.0942 62.0006 17.5289 61.6255 16.9686 61.2418C16.7067 61.0642 16.4461 60.884 16.1867 60.7014C13.5274 58.8383 11.0032 56.7923 8.63276 54.5785C7.08072 53.1333 5.62531 51.5892 4.27581 49.9561C-1.02205 43.4723 -2.19057 37.6301 5.36243 36.4291C6.25667 36.2874 7.12457 36.1359 7.96612 35.9746C9.18512 35.7422 10.3517 35.4911 11.466 35.2215C12.9668 34.8596 14.3769 34.4672 15.6963 34.0442C16.14 33.9025 16.5737 33.7579 16.9972 33.6105C23.2578 31.4288 27.4481 28.5837 30.3004 25.4968C30.7842 24.9742 31.2302 24.4454 31.6384 23.9103C32.263 23.0958 32.8303 22.2396 33.3364 21.3478C34.0349 20.1086 34.6216 18.8107 35.0897 17.469L35.1154 17.3953C37.3848 10.9001 36.6944 4.87555 39.1981 2.85916C49.9004 -5.76104 63.2246 6.51493 69.4786 20.9915C69.7938 21.721 70.0903 22.4549 70.3681 23.1931C70.4929 23.5229 70.6132 23.8533 70.729 24.1843C71.0338 25.047 71.3103 25.9119 71.5585 26.779C71.6538 27.1097 71.7445 27.4401 71.8309 27.7702C71.9233 28.1264 72.0118 28.4817 72.0937 28.8369C72.7023 31.4382 73.0327 34.0036 73.0327 36.4291Z" fill="#F2F2F2"/>
<path id="Vector_2" d="M39.958 69.9915C39.7057 69.9972 39.4523 70 39.1981 70C33.1574 70 25.5596 66.7987 18.6647 62.3672C18.0942 62.0006 17.5289 61.6255 16.9686 61.2418L17.46 58.2749L32.3365 56.3152L39.8028 61.9798L39.958 69.9915Z" fill="#2F2E41"/>
<path id="Vector_3" d="M40.6742 17.0126H38.5543C38.4886 17.0127 38.4257 17.0386 38.3792 17.0846C38.3328 17.1307 38.3067 17.1932 38.3067 17.2583V19.3626C38.3067 19.3948 38.3131 19.4267 38.3256 19.4564C38.3381 19.4861 38.3563 19.5131 38.3793 19.5359C38.4023 19.5586 38.4296 19.5766 38.4596 19.5889C38.4896 19.6011 38.5218 19.6074 38.5543 19.6073H40.6742C40.7397 19.6073 40.8025 19.5816 40.849 19.5357C40.8954 19.4898 40.9216 19.4276 40.9218 19.3626V17.2583C40.9216 17.1932 40.8954 17.1308 40.8491 17.0848C40.8027 17.0388 40.7398 17.0128 40.6742 17.0126Z" fill="white"/>
<path id="Vector_4" d="M40.6742 20.5985H38.5543C38.4886 20.5985 38.4257 20.6244 38.3792 20.6705C38.3328 20.7165 38.3067 20.779 38.3067 20.8442V22.9484C38.3067 22.9806 38.3131 23.0125 38.3256 23.0423C38.3381 23.072 38.3563 23.099 38.3793 23.1217C38.4023 23.1445 38.4296 23.1625 38.4596 23.1747C38.4896 23.187 38.5218 23.1932 38.5543 23.1931H40.6742C40.7397 23.1932 40.8025 23.1674 40.849 23.1216C40.8954 23.0757 40.9216 23.0134 40.9218 22.9484V20.8442C40.9216 20.7791 40.8955 20.7167 40.8491 20.6707C40.8027 20.6246 40.7398 20.5987 40.6742 20.5985Z" fill="#E6E6E6"/>
<path id="Vector_5" d="M40.6742 24.1843H38.5543C38.4886 24.1844 38.4256 24.2103 38.3792 24.2563C38.3328 24.3024 38.3067 24.3649 38.3067 24.43V26.5333C38.3066 26.5656 38.313 26.5976 38.3254 26.6274C38.3378 26.6573 38.356 26.6844 38.3791 26.7072C38.4021 26.73 38.4294 26.7481 38.4594 26.7604C38.4895 26.7727 38.5217 26.7791 38.5543 26.779H40.6742C40.7398 26.779 40.8028 26.7531 40.8492 26.707C40.8957 26.6609 40.9218 26.5985 40.9218 26.5333V24.43C40.9216 24.3649 40.8955 24.3025 40.8491 24.2565C40.8027 24.2105 40.7398 24.1845 40.6742 24.1843Z" fill="#E6E6E6"/>
<path id="Vector_6" d="M40.918 27.9724C40.9074 27.9158 40.8773 27.8646 40.8328 27.8277C40.7883 27.7908 40.7322 27.7705 40.6742 27.7702H38.5543C38.4886 27.7702 38.4257 27.7961 38.3792 27.8422C38.3328 27.8882 38.3067 27.9507 38.3067 28.0159V30.1192C38.3066 30.1514 38.313 30.1834 38.3254 30.2133C38.3378 30.2431 38.356 30.2702 38.379 30.293C38.4021 30.3159 38.4294 30.3339 38.4594 30.3463C38.4895 30.3586 38.5217 30.3649 38.5543 30.3648H40.6742C40.7398 30.3648 40.8028 30.3389 40.8492 30.2929C40.8957 30.2468 40.9218 30.1843 40.9218 30.1192V28.0159C40.922 28.0013 40.9207 27.9867 40.918 27.9724Z" fill="#E6E6E6"/>
<path id="Vector_7" d="M40.7704 31.3749C40.7399 31.3624 40.7072 31.356 40.6742 31.356H38.5543C38.5217 31.356 38.4895 31.3623 38.4595 31.3746C38.4294 31.3869 38.4021 31.405 38.3791 31.4278C38.3561 31.4507 38.3378 31.4778 38.3254 31.5076C38.313 31.5374 38.3066 31.5694 38.3067 31.6017V33.705C38.3065 33.7373 38.3128 33.7693 38.3252 33.7992C38.3376 33.8291 38.3559 33.8562 38.3789 33.8791C38.4019 33.9019 38.4292 33.92 38.4594 33.9323C38.4895 33.9446 38.5217 33.9508 38.5543 33.9507H40.6742C40.7398 33.9507 40.8028 33.9248 40.8492 33.8787C40.8957 33.8326 40.9218 33.7702 40.9218 33.705V31.6017C40.9217 31.5533 40.9073 31.5061 40.8804 31.4658C40.8534 31.4255 40.8152 31.3939 40.7704 31.3749Z" fill="#E6E6E6"/>
<path id="Vector_8" d="M45.1273 17.0126H43.0074C42.9417 17.0127 42.8788 17.0386 42.8324 17.0846C42.7859 17.1307 42.7598 17.1932 42.7598 17.2583V19.3626C42.7598 19.3948 42.7663 19.4267 42.7787 19.4564C42.7912 19.4861 42.8095 19.5131 42.8325 19.5359C42.8555 19.5586 42.8827 19.5766 42.9128 19.5889C42.9428 19.6011 42.9749 19.6074 43.0074 19.6073H45.1273C45.1928 19.6073 45.2557 19.5816 45.3021 19.5357C45.3485 19.4898 45.3747 19.4276 45.3749 19.3626V17.2583C45.3747 17.1932 45.3486 17.1308 45.3022 17.0848C45.2558 17.0388 45.1929 17.0128 45.1273 17.0126Z" fill="#C207C6"/>
<path id="Vector_9" d="M45.1273 20.5985H43.0074C42.9417 20.5985 42.8788 20.6244 42.8324 20.6705C42.7859 20.7165 42.7598 20.779 42.7598 20.8442V22.9484C42.7598 22.9806 42.7663 23.0125 42.7787 23.0423C42.7912 23.072 42.8095 23.099 42.8325 23.1217C42.8555 23.1445 42.8827 23.1625 42.9128 23.1747C42.9428 23.187 42.9749 23.1932 43.0074 23.1931H45.1273C45.1928 23.1932 45.2557 23.1674 45.3021 23.1216C45.3485 23.0757 45.3747 23.0134 45.3749 22.9484V20.8442C45.3747 20.7791 45.3486 20.7167 45.3022 20.6707C45.2558 20.6246 45.1929 20.5987 45.1273 20.5985Z" fill="#2A0839"/>
<path id="Vector_10" d="M45.1273 24.1843H43.0074C42.9417 24.1844 42.8788 24.2103 42.8324 24.2563C42.7859 24.3024 42.7598 24.3649 42.7598 24.43V26.5333C42.7597 26.5656 42.7661 26.5976 42.7785 26.6274C42.7909 26.6573 42.8092 26.6844 42.8322 26.7072C42.8552 26.73 42.8825 26.7481 42.9126 26.7604C42.9426 26.7727 42.9749 26.7791 43.0074 26.779H45.1273C45.193 26.779 45.2559 26.7531 45.3024 26.707C45.3488 26.6609 45.3749 26.5985 45.3749 26.5333V24.43C45.3747 24.3649 45.3486 24.3025 45.3022 24.2565C45.2558 24.2105 45.1929 24.1845 45.1273 24.1843Z" fill="#2A0839"/>
<path id="Vector_11" d="M45.1273 27.7702H43.0074C42.9555 27.7702 42.9049 27.7865 42.8629 27.8167C42.8208 27.8469 42.7894 27.8895 42.7731 27.9384C42.7643 27.9633 42.7598 27.9895 42.7598 28.0158V30.1192C42.7597 30.1514 42.7661 30.1834 42.7785 30.2133C42.7909 30.2431 42.8092 30.2702 42.8322 30.293C42.8552 30.3158 42.8825 30.3339 42.9126 30.3463C42.9426 30.3586 42.9749 30.3649 43.0074 30.3648H45.1273C45.193 30.3648 45.2559 30.3389 45.3024 30.2929C45.3488 30.2468 45.3749 30.1843 45.3749 30.1192V28.0158C45.3747 27.9508 45.3486 27.8884 45.3022 27.8423C45.2558 27.7963 45.1929 27.7704 45.1273 27.7702Z" fill="#2A0839"/>
<path id="Vector_12" d="M45.1273 31.356H43.0074C42.9749 31.356 42.9426 31.3623 42.9126 31.3746C42.8825 31.3869 42.8552 31.405 42.8322 31.4278C42.8092 31.4507 42.7909 31.4778 42.7785 31.5076C42.7661 31.5374 42.7597 31.5694 42.7598 31.6017V33.705C42.7597 33.7373 42.7661 33.7693 42.7785 33.7991C42.7909 33.8289 42.8092 33.856 42.8322 33.8789C42.8552 33.9017 42.8825 33.9198 42.9126 33.9321C42.9426 33.9444 42.9749 33.9508 43.0074 33.9507H45.1273C45.193 33.9507 45.2559 33.9248 45.3024 33.8787C45.3488 33.8326 45.3749 33.7702 45.3749 33.705V31.6017C45.3749 31.5365 45.3488 31.4741 45.3024 31.428C45.2559 31.3819 45.193 31.3561 45.1273 31.356Z" fill="#E6E6E6"/>
<path id="Vector_13" d="M49.5805 17.0126H47.4605C47.3949 17.0127 47.3319 17.0386 47.2855 17.0846C47.2391 17.1307 47.213 17.1932 47.213 17.2583V19.3626C47.213 19.3948 47.2194 19.4267 47.2319 19.4564C47.2443 19.4861 47.2626 19.5131 47.2856 19.5359C47.3086 19.5586 47.3359 19.5766 47.3659 19.5889C47.3959 19.6011 47.4281 19.6074 47.4605 19.6073H49.5805C49.646 19.6073 49.7088 19.5816 49.7552 19.5357C49.8016 19.4898 49.8278 19.4276 49.8281 19.3626V17.2583C49.8279 17.1932 49.8017 17.1308 49.7553 17.0848C49.7089 17.0388 49.6461 17.0128 49.5805 17.0126Z" fill="#2A0839"/>
<path id="Vector_14" d="M49.5805 20.5985H47.4605C47.3949 20.5985 47.3319 20.6244 47.2855 20.6705C47.2391 20.7165 47.213 20.779 47.213 20.8442V22.9484C47.213 22.9806 47.2194 23.0125 47.2319 23.0423C47.2443 23.072 47.2626 23.099 47.2856 23.1217C47.3086 23.1445 47.3359 23.1625 47.3659 23.1747C47.3959 23.187 47.4281 23.1932 47.4605 23.1931H49.5805C49.646 23.1932 49.7088 23.1674 49.7552 23.1216C49.8016 23.0757 49.8278 23.0134 49.8281 22.9484V20.8442C49.8279 20.7791 49.8017 20.7167 49.7553 20.6707C49.7089 20.6246 49.6461 20.5987 49.5805 20.5985Z" fill="#2A0839"/>
<path id="Vector_15" d="M49.5805 24.1843H47.4605C47.3949 24.1844 47.3319 24.2103 47.2855 24.2563C47.2391 24.3024 47.213 24.3649 47.213 24.43V26.5333C47.2129 26.5656 47.2192 26.5976 47.2317 26.6274C47.2441 26.6573 47.2623 26.6844 47.2853 26.7072C47.3083 26.73 47.3357 26.7481 47.3657 26.7604C47.3958 26.7727 47.428 26.7791 47.4605 26.779H49.5805C49.6461 26.779 49.7091 26.7531 49.7555 26.707C49.8019 26.6609 49.828 26.5985 49.8281 26.5333V24.43C49.8279 24.3649 49.8017 24.3025 49.7553 24.2565C49.7089 24.2105 49.6461 24.1845 49.5805 24.1843Z" fill="#E6E6E6"/>
<path id="Vector_16" d="M49.5805 27.7702H47.4605C47.3949 27.7702 47.3319 27.7961 47.2855 27.8422C47.2391 27.8882 47.213 27.9507 47.213 28.0159V30.1192C47.2129 30.1514 47.2192 30.1834 47.2317 30.2133C47.2441 30.2431 47.2623 30.2702 47.2853 30.293C47.3083 30.3159 47.3356 30.3339 47.3657 30.3463C47.3958 30.3586 47.428 30.3649 47.4605 30.3648H49.5805C49.6461 30.3648 49.7091 30.3389 49.7555 30.2929C49.8019 30.2468 49.828 30.1843 49.8281 30.1192V28.0159C49.8279 27.9508 49.8017 27.8884 49.7553 27.8423C49.7089 27.7963 49.6461 27.7704 49.5805 27.7702Z" fill="#2A0839"/>
<path id="Vector_17" d="M49.5805 31.356H47.4605C47.428 31.356 47.3958 31.3623 47.3657 31.3746C47.3356 31.3869 47.3083 31.405 47.2853 31.4278C47.2623 31.4507 47.2441 31.4778 47.2317 31.5076C47.2192 31.5374 47.2129 31.5694 47.213 31.6017V33.705C47.2129 33.7373 47.2192 33.7693 47.2317 33.7991C47.2441 33.8289 47.2623 33.856 47.2853 33.8789C47.3083 33.9017 47.3356 33.9198 47.3657 33.9321C47.3958 33.9444 47.428 33.9508 47.4605 33.9507H49.5805C49.6461 33.9507 49.7091 33.9248 49.7555 33.8787C49.8019 33.8326 49.828 33.7702 49.8281 33.705V31.6017C49.828 31.5365 49.8019 31.4741 49.7555 31.428C49.7091 31.3819 49.6461 31.3561 49.5805 31.356Z" fill="#2A0839"/>
<path id="Vector_18" d="M54.0336 17.0126H51.9137C51.848 17.0127 51.7851 17.0386 51.7386 17.0846C51.6922 17.1307 51.6661 17.1932 51.6661 17.2583V19.3626C51.6661 19.3948 51.6725 19.4267 51.685 19.4564C51.6975 19.4861 51.7157 19.5131 51.7387 19.5359C51.7617 19.5586 51.789 19.5766 51.819 19.5889C51.849 19.6011 51.8812 19.6074 51.9137 19.6073H54.0336C54.0991 19.6073 54.1619 19.5816 54.2084 19.5357C54.2548 19.4898 54.281 19.4276 54.2812 19.3626V17.2583C54.281 17.1932 54.2548 17.1308 54.2085 17.0848C54.1621 17.0388 54.0992 17.0128 54.0336 17.0126Z" fill="#2A0839"/>
<path id="Vector_19" d="M54.0336 20.5985H51.9137C51.848 20.5985 51.7851 20.6244 51.7386 20.6705C51.6922 20.7165 51.6661 20.779 51.6661 20.8442V22.9484C51.6661 22.9806 51.6725 23.0125 51.685 23.0423C51.6975 23.072 51.7157 23.099 51.7387 23.1217C51.7617 23.1445 51.789 23.1625 51.819 23.1747C51.849 23.187 51.8812 23.1932 51.9137 23.1931H54.0336C54.0991 23.1932 54.1619 23.1674 54.2084 23.1216C54.2548 23.0757 54.281 23.0134 54.2812 22.9484V20.8442C54.281 20.7791 54.2549 20.7167 54.2085 20.6707C54.1621 20.6246 54.0992 20.5987 54.0336 20.5985Z" fill="#5B8AF9"/>
<path id="Vector_20" d="M54.0336 24.1843H51.9137C51.848 24.1844 51.7851 24.2103 51.7386 24.2563C51.6922 24.3024 51.6661 24.3649 51.6661 24.43V26.5333C51.666 26.5656 51.6724 26.5976 51.6848 26.6274C51.6972 26.6573 51.7154 26.6844 51.7384 26.7072C51.7615 26.73 51.7888 26.7481 51.8188 26.7604C51.8489 26.7727 51.8811 26.7791 51.9137 26.779H54.0336C54.0992 26.779 54.1622 26.7531 54.2086 26.707C54.2551 26.6609 54.2812 26.5985 54.2812 26.5333V24.43C54.281 24.3649 54.2549 24.3025 54.2085 24.2565C54.1621 24.2105 54.0992 24.1845 54.0336 24.1843Z" fill="#5B8AF9"/>
<path id="Vector_21" d="M54.0336 27.7702H51.9137C51.848 27.7702 51.7851 27.7961 51.7386 27.8422C51.6922 27.8882 51.6661 27.9507 51.6661 28.0159V30.1192C51.666 30.1515 51.6724 30.1834 51.6848 30.2133C51.6972 30.2431 51.7154 30.2702 51.7384 30.293C51.7615 30.3159 51.7888 30.3339 51.8188 30.3463C51.8489 30.3586 51.8811 30.3649 51.9137 30.3648H54.0336C54.0992 30.3648 54.1622 30.3389 54.2086 30.2929C54.2551 30.2468 54.2812 30.1843 54.2812 30.1192V28.0159C54.281 27.9508 54.2549 27.8884 54.2085 27.8423C54.1621 27.7963 54.0992 27.7704 54.0336 27.7702Z" fill="#C207C6"/>
<path id="Vector_22" d="M54.0336 31.356H51.9137C51.8811 31.356 51.8489 31.3623 51.8188 31.3746C51.7888 31.3869 51.7615 31.405 51.7384 31.4278C51.7154 31.4507 51.6972 31.4778 51.6848 31.5076C51.6724 31.5374 51.666 31.5694 51.6661 31.6017V33.705C51.666 33.7373 51.6724 33.7693 51.6848 33.7991C51.6972 33.8289 51.7154 33.856 51.7384 33.8789C51.7615 33.9017 51.7888 33.9198 51.8188 33.9321C51.8489 33.9444 51.8811 33.9508 51.9137 33.9507H54.0336C54.0992 33.9507 54.1622 33.9248 54.2086 33.8787C54.2551 33.8326 54.2812 33.7702 54.2812 33.705V31.6017C54.2812 31.5365 54.2551 31.4741 54.2086 31.428C54.1622 31.3819 54.0992 31.3561 54.0336 31.356Z" fill="#2A0839"/>
<path id="Vector_23" d="M58.4867 17.0126H56.3659C56.3004 17.0129 56.2376 17.0389 56.1914 17.0849C56.1451 17.131 56.1192 17.1933 56.1192 17.2583V19.3626C56.1192 19.4275 56.1452 19.4897 56.1915 19.5356C56.2377 19.5815 56.3004 19.6073 56.3659 19.6073H58.4867C58.5522 19.6073 58.6151 19.5816 58.6615 19.5357C58.7079 19.4898 58.7341 19.4276 58.7343 19.3626V17.2583C58.7341 17.1932 58.708 17.1308 58.6616 17.0848C58.6152 17.0388 58.5523 17.0128 58.4867 17.0126Z" fill="#5B8AF9"/>
<path id="Vector_24" d="M58.4867 20.5985H56.3659C56.3003 20.5987 56.2376 20.6247 56.1914 20.6708C56.1451 20.7168 56.1192 20.7792 56.1192 20.8442V22.9484C56.1192 23.0133 56.1452 23.0756 56.1915 23.1215C56.2377 23.1674 56.3004 23.1931 56.3659 23.1931H58.4867C58.5522 23.1932 58.6151 23.1674 58.6615 23.1216C58.7079 23.0757 58.7341 23.0134 58.7343 22.9484V20.8442C58.7341 20.7791 58.708 20.7167 58.6616 20.6707C58.6152 20.6246 58.5523 20.5987 58.4867 20.5985Z" fill="white"/>
<path id="Vector_25" d="M58.4867 24.1843H56.3659C56.3003 24.1846 56.2376 24.2105 56.1914 24.2566C56.1451 24.3027 56.1192 24.365 56.1192 24.43V26.5333C56.1191 26.5655 56.1254 26.5974 56.1378 26.6272C56.1501 26.657 56.1683 26.6841 56.1912 26.7069C56.2141 26.7297 56.2413 26.7478 56.2713 26.7602C56.3013 26.7726 56.3334 26.779 56.3659 26.779H58.4867C58.5524 26.779 58.6153 26.7531 58.6618 26.707C58.7082 26.6609 58.7343 26.5985 58.7343 26.5333V24.43C58.7341 24.3649 58.708 24.3025 58.6616 24.2565C58.6152 24.2105 58.5523 24.1845 58.4867 24.1843Z" fill="white"/>
<path id="Vector_26" d="M58.4867 27.7702H56.3659C56.3003 27.7704 56.2376 27.7964 56.1914 27.8424C56.1451 27.8885 56.1192 27.9509 56.1192 28.0159V30.1192C56.1191 30.1514 56.1254 30.1833 56.1378 30.2131C56.1501 30.2429 56.1683 30.2699 56.1912 30.2928C56.2141 30.3156 56.2413 30.3337 56.2713 30.3461C56.3013 30.3584 56.3334 30.3648 56.3659 30.3648H58.4867C58.5524 30.3648 58.6153 30.3389 58.6618 30.2929C58.7082 30.2468 58.7343 30.1843 58.7343 30.1192V28.0159C58.7341 27.9508 58.708 27.8884 58.6616 27.8423C58.6152 27.7963 58.5523 27.7704 58.4867 27.7702Z" fill="#2A0839"/>
<path id="Vector_27" d="M58.4867 31.356H56.3659C56.3334 31.3561 56.3013 31.3624 56.2713 31.3748C56.2413 31.3872 56.2141 31.4053 56.1912 31.4281C56.1683 31.4509 56.1501 31.478 56.1378 31.5078C56.1254 31.5376 56.1191 31.5695 56.1192 31.6017V33.705C56.1191 33.7372 56.1254 33.7691 56.1378 33.7989C56.1501 33.8287 56.1683 33.8558 56.1912 33.8786C56.2141 33.9014 56.2413 33.9195 56.2713 33.9319C56.3013 33.9443 56.3334 33.9507 56.3659 33.9507H58.4867C58.5524 33.9507 58.6153 33.9248 58.6618 33.8787C58.7082 33.8326 58.7343 33.7702 58.7343 33.705V31.6017C58.7343 31.5365 58.7082 31.4741 58.6618 31.428C58.6153 31.3819 58.5524 31.3561 58.4867 31.356Z" fill="#E6E6E6"/>
<path id="Vector_28" d="M62.9399 17.0126H60.819C60.7535 17.0129 60.6907 17.0389 60.6445 17.0849C60.5983 17.131 60.5723 17.1933 60.5723 17.2583V19.3626C60.5724 19.4275 60.5983 19.4897 60.6446 19.5356C60.6909 19.5815 60.7536 19.6073 60.819 19.6073H62.9399C63.0054 19.6073 63.0682 19.5816 63.1146 19.5357C63.161 19.4898 63.1872 19.4276 63.1875 19.3626V17.2583C63.1873 17.1932 63.1611 17.1308 63.1147 17.0848C63.0683 17.0388 63.0055 17.0128 62.9399 17.0126Z" fill="white"/>
<path id="Vector_29" d="M62.9399 20.5985H60.819C60.7535 20.5987 60.6907 20.6247 60.6445 20.6708C60.5983 20.7168 60.5723 20.7792 60.5723 20.8442V22.9484C60.5724 23.0133 60.5983 23.0756 60.6446 23.1215C60.6909 23.1674 60.7536 23.1931 60.819 23.1931H62.9399C63.0054 23.1932 63.0682 23.1674 63.1146 23.1216C63.161 23.0757 63.1872 23.0134 63.1875 22.9484V20.8442C63.1873 20.7791 63.1611 20.7167 63.1147 20.6707C63.0683 20.6246 63.0055 20.5987 62.9399 20.5985Z" fill="white"/>
<path id="Vector_30" d="M62.9399 24.1843H60.819C60.7535 24.1846 60.6907 24.2105 60.6445 24.2566C60.5983 24.3027 60.5723 24.365 60.5723 24.43V26.5333C60.5723 26.5655 60.5786 26.5974 60.5909 26.6272C60.6033 26.657 60.6214 26.6841 60.6443 26.7069C60.6672 26.7297 60.6945 26.7478 60.7244 26.7602C60.7544 26.7726 60.7865 26.779 60.819 26.779H62.9399C63.0055 26.779 63.0685 26.7531 63.1149 26.707C63.1613 26.6609 63.1874 26.5985 63.1875 26.5333V24.43C63.1873 24.3649 63.1611 24.3025 63.1147 24.2565C63.0683 24.2105 63.0055 24.1845 62.9399 24.1843Z" fill="#2A0839"/>
<path id="Vector_31" d="M62.9399 27.7702H60.819C60.7535 27.7704 60.6907 27.7964 60.6445 27.8424C60.5983 27.8885 60.5723 27.9509 60.5723 28.0159V30.1192C60.5723 30.1514 60.5786 30.1833 60.5909 30.2131C60.6033 30.2429 60.6214 30.2699 60.6443 30.2928C60.6672 30.3156 60.6945 30.3337 60.7244 30.3461C60.7544 30.3584 60.7865 30.3648 60.819 30.3648H62.9399C63.0055 30.3648 63.0685 30.3389 63.1149 30.2929C63.1613 30.2468 63.1874 30.1843 63.1875 30.1192V28.0159C63.1873 27.9508 63.1611 27.8884 63.1147 27.8423C63.0683 27.7963 63.0055 27.7704 62.9399 27.7702Z" fill="#5B8AF9"/>
<path id="Vector_32" d="M62.9399 31.356H60.819C60.7865 31.3561 60.7544 31.3624 60.7244 31.3748C60.6945 31.3872 60.6672 31.4053 60.6443 31.4281C60.6214 31.4509 60.6033 31.478 60.5909 31.5078C60.5786 31.5376 60.5723 31.5695 60.5723 31.6017V33.705C60.5723 33.7372 60.5786 33.7691 60.5909 33.7989C60.6033 33.8287 60.6214 33.8558 60.6443 33.8786C60.6672 33.9014 60.6945 33.9195 60.7244 33.9319C60.7544 33.9443 60.7865 33.9507 60.819 33.9507H62.9399C63.0055 33.9507 63.0685 33.9248 63.1149 33.8787C63.1613 33.8326 63.1874 33.7702 63.1875 33.705V31.6017C63.1874 31.5365 63.1613 31.4741 63.1149 31.428C63.0685 31.3819 63.0055 31.3561 62.9399 31.356Z" fill="#5B8AF9"/>
<path id="Vector_33" d="M67.393 17.0126H65.2721C65.2066 17.0129 65.1439 17.0389 65.0976 17.0849C65.0514 17.131 65.0255 17.1933 65.0255 17.2583V19.3626C65.0255 19.4275 65.0515 19.4897 65.0977 19.5356C65.144 19.5815 65.2067 19.6073 65.2721 19.6073H67.393C67.4585 19.6073 67.5214 19.5816 67.5678 19.5357C67.6142 19.4898 67.6404 19.4276 67.6406 19.3626V17.2583C67.6404 17.1932 67.6143 17.1308 67.5679 17.0848C67.5215 17.0388 67.4586 17.0128 67.393 17.0126Z" fill="#2A0839"/>
<path id="Vector_34" d="M67.393 20.5985H65.2721C65.2066 20.5987 65.1439 20.6247 65.0976 20.6708C65.0514 20.7168 65.0255 20.7792 65.0255 20.8442V22.9484C65.0255 23.0133 65.0515 23.0756 65.0977 23.1215C65.144 23.1674 65.2067 23.1931 65.2721 23.1931H67.393C67.4585 23.1932 67.5214 23.1674 67.5678 23.1216C67.6142 23.0757 67.6404 23.0134 67.6406 22.9484V20.8442C67.6404 20.7791 67.6143 20.7167 67.5679 20.6707C67.5215 20.6246 67.4586 20.5987 67.393 20.5985Z" fill="#2A0839"/>
<path id="Vector_35" d="M67.393 24.1843H65.2721C65.2066 24.1846 65.1439 24.2105 65.0976 24.2566C65.0514 24.3027 65.0255 24.365 65.0255 24.43V26.5333C65.0254 26.5655 65.0317 26.5974 65.0441 26.6272C65.0564 26.657 65.0746 26.6841 65.0975 26.7069C65.1204 26.7297 65.1476 26.7478 65.1776 26.7602C65.2075 26.7726 65.2397 26.779 65.2721 26.779H67.393C67.4587 26.779 67.5216 26.7531 67.568 26.707C67.6145 26.6609 67.6406 26.5985 67.6406 26.5333V24.43C67.6404 24.3649 67.6143 24.3025 67.5679 24.2565C67.5215 24.2105 67.4586 24.1845 67.393 24.1843Z" fill="#C207C6"/>
<path id="Vector_36" d="M67.393 27.7702H65.2721C65.2066 27.7704 65.1439 27.7964 65.0976 27.8424C65.0514 27.8885 65.0255 27.9509 65.0255 28.0159V30.1192C65.0254 30.1514 65.0317 30.1833 65.0441 30.2131C65.0564 30.2429 65.0746 30.2699 65.0975 30.2928C65.1204 30.3156 65.1476 30.3337 65.1776 30.3461C65.2075 30.3584 65.2397 30.3648 65.2721 30.3648H67.393C67.4587 30.3648 67.5216 30.3389 67.5681 30.2929C67.6145 30.2468 67.6406 30.1843 67.6406 30.1192V28.0159C67.6404 27.9508 67.6143 27.8884 67.5679 27.8423C67.5215 27.7963 67.4586 27.7704 67.393 27.7702Z" fill="white"/>
<path id="Vector_37" d="M67.393 31.356H65.2721C65.2397 31.3561 65.2075 31.3624 65.1776 31.3748C65.1476 31.3872 65.1204 31.4053 65.0975 31.4281C65.0746 31.4509 65.0564 31.478 65.0441 31.5078C65.0317 31.5376 65.0254 31.5695 65.0255 31.6017V33.705C65.0254 33.7372 65.0317 33.7691 65.0441 33.7989C65.0564 33.8287 65.0746 33.8558 65.0975 33.8786C65.1204 33.9014 65.1476 33.9195 65.1776 33.9319C65.2075 33.9443 65.2397 33.9507 65.2721 33.9507H67.393C67.4587 33.9507 67.5216 33.9248 67.5681 33.8787C67.6145 33.8326 67.6406 33.7702 67.6406 33.705V31.6017C67.6406 31.5365 67.6145 31.4741 67.5681 31.428C67.5216 31.3819 67.4587 31.3561 67.393 31.356Z" fill="#2A0839"/>
<path id="Vector_38" d="M71.8461 17.0126H69.7253C69.6598 17.0129 69.597 17.0389 69.5508 17.0849C69.5045 17.131 69.4786 17.1933 69.4786 17.2583V19.3626C69.4786 19.4275 69.5046 19.4897 69.5509 19.5356C69.5971 19.5815 69.6599 19.6073 69.7253 19.6073H71.8461C71.9116 19.6073 71.9745 19.5816 72.0209 19.5357C72.0673 19.4898 72.0935 19.4276 72.0937 19.3626V17.2583C72.0935 17.1932 72.0674 17.1308 72.021 17.0848C71.9746 17.0388 71.9117 17.0128 71.8461 17.0126Z" fill="#2A0839"/>
<path id="Vector_39" d="M71.8461 20.5985H69.7253C69.6598 20.5987 69.597 20.6247 69.5508 20.6708C69.5045 20.7168 69.4786 20.7792 69.4786 20.8442V22.9484C69.4786 23.0133 69.5046 23.0756 69.5509 23.1215C69.5971 23.1674 69.6599 23.1931 69.7253 23.1931H71.8461C71.9116 23.1932 71.9745 23.1674 72.0209 23.1216C72.0673 23.0757 72.0935 23.0134 72.0937 22.9484V20.8442C72.0935 20.7791 72.0674 20.7167 72.021 20.6707C71.9746 20.6246 71.9117 20.5987 71.8461 20.5985Z" fill="#2A0839"/>
<path id="Vector_40" d="M71.8461 24.1843H69.7253C69.6598 24.1846 69.597 24.2105 69.5508 24.2566C69.5045 24.3027 69.4786 24.365 69.4786 24.43V26.5333C69.4785 26.5655 69.4848 26.5974 69.4972 26.6272C69.5095 26.657 69.5277 26.6841 69.5506 26.7069C69.5735 26.7297 69.6007 26.7478 69.6307 26.7602C69.6607 26.7726 69.6928 26.779 69.7253 26.779H71.8461C71.9118 26.779 71.9747 26.7531 72.0212 26.707C72.0676 26.6609 72.0937 26.5985 72.0937 26.5333V24.43C72.0935 24.3649 72.0674 24.3025 72.021 24.2565C71.9746 24.2105 71.9117 24.1845 71.8461 24.1843Z" fill="#C207C6"/>
<path id="Vector_41" d="M71.8461 27.7702H69.7253C69.6598 27.7704 69.597 27.7964 69.5508 27.8424C69.5045 27.8885 69.4786 27.9509 69.4786 28.0159V30.1192C69.4785 30.1514 69.4848 30.1833 69.4972 30.2131C69.5095 30.2429 69.5277 30.2699 69.5506 30.2928C69.5735 30.3156 69.6007 30.3337 69.6307 30.3461C69.6607 30.3584 69.6928 30.3648 69.7253 30.3648H71.8461C71.9118 30.3648 71.9747 30.3389 72.0212 30.2929C72.0676 30.2468 72.0937 30.1843 72.0937 30.1192V28.0159C72.0935 27.9508 72.0674 27.8884 72.021 27.8423C71.9746 27.7963 71.9117 27.7704 71.8461 27.7702Z" fill="#2A0839"/>
<path id="Vector_42" d="M71.8461 31.356H69.7253C69.6928 31.3561 69.6607 31.3624 69.6307 31.3748C69.6007 31.3872 69.5735 31.4053 69.5506 31.4281C69.5277 31.4509 69.5095 31.478 69.4972 31.5078C69.4848 31.5376 69.4785 31.5695 69.4786 31.6017V33.705C69.4785 33.7372 69.4848 33.7691 69.4972 33.7989C69.5095 33.8287 69.5277 33.8558 69.5506 33.8786C69.5735 33.9014 69.6007 33.9195 69.6307 33.9319C69.6607 33.9443 69.6928 33.9507 69.7253 33.9507H71.8461C71.9118 33.9507 71.9747 33.9248 72.0212 33.8787C72.0676 33.8326 72.0937 33.7702 72.0937 33.705V31.6017C72.0937 31.5365 72.0676 31.4741 72.0212 31.428C71.9747 31.3819 71.9118 31.3561 71.8461 31.356Z" fill="#2A0839"/>
<path id="Vector_43" d="M76.2992 17.0126H74.1784C74.1129 17.0129 74.0501 17.0389 74.0039 17.0849C73.9577 17.131 73.9317 17.1933 73.9317 17.2583V19.3626C73.9317 19.4275 73.9577 19.4897 74.004 19.5356C74.0502 19.5815 74.113 19.6073 74.1784 19.6073H76.2992C76.3648 19.6073 76.4276 19.5816 76.474 19.5357C76.5204 19.4898 76.5466 19.4276 76.5468 19.3626V17.2583C76.5467 17.1932 76.5205 17.1308 76.4741 17.0848C76.4277 17.0388 76.3649 17.0128 76.2992 17.0126Z" fill="#5B8AF9"/>
<path id="Vector_44" d="M76.2992 20.5985H74.1784C74.1129 20.5987 74.0501 20.6247 74.0039 20.6708C73.9577 20.7168 73.9317 20.7792 73.9317 20.8442V22.9484C73.9317 23.0133 73.9577 23.0756 74.004 23.1215C74.0502 23.1674 74.113 23.1931 74.1784 23.1931H76.2992C76.3648 23.1932 76.4276 23.1674 76.474 23.1216C76.5204 23.0757 76.5466 23.0134 76.5468 22.9484V20.8442C76.5467 20.7791 76.5205 20.7167 76.4741 20.6707C76.4277 20.6246 76.3649 20.5987 76.2992 20.5985Z" fill="#2A0839"/>
<path id="Vector_45" d="M76.2992 24.1843H74.1784C74.1129 24.1846 74.0501 24.2105 74.0039 24.2566C73.9577 24.3027 73.9317 24.365 73.9317 24.43V26.5333C73.9316 26.5655 73.938 26.5974 73.9503 26.6272C73.9627 26.657 73.9808 26.6841 74.0037 26.7069C74.0266 26.7297 74.0538 26.7478 74.0838 26.7602C74.1138 26.7726 74.1459 26.779 74.1784 26.779H76.2992C76.3649 26.779 76.4279 26.7531 76.4743 26.707C76.5207 26.6609 76.5468 26.5985 76.5469 26.5333V24.43C76.5467 24.3649 76.5205 24.3025 76.4741 24.2565C76.4277 24.2105 76.3649 24.1845 76.2992 24.1843Z" fill="#2A0839"/>
<path id="Vector_46" d="M76.2992 27.7702H74.1784C74.1129 27.7704 74.0501 27.7964 74.0039 27.8424C73.9577 27.8885 73.9317 27.9509 73.9317 28.0159V30.1192C73.9316 30.1514 73.938 30.1833 73.9503 30.2131C73.9627 30.2429 73.9808 30.2699 74.0037 30.2928C74.0266 30.3156 74.0538 30.3337 74.0838 30.3461C74.1138 30.3584 74.1459 30.3648 74.1784 30.3648H76.2992C76.3649 30.3648 76.4279 30.3389 76.4743 30.2929C76.5207 30.2468 76.5468 30.1843 76.5469 30.1192V28.0159C76.5467 27.9508 76.5205 27.8884 76.4741 27.8423C76.4277 27.7963 76.3649 27.7704 76.2992 27.7702Z" fill="#2A0839"/>
<path id="Vector_47" d="M76.2992 31.356H74.1784C74.1459 31.3561 74.1138 31.3624 74.0838 31.3748C74.0538 31.3872 74.0266 31.4053 74.0037 31.4281C73.9808 31.4509 73.9627 31.478 73.9503 31.5078C73.938 31.5376 73.9316 31.5695 73.9317 31.6017V33.705C73.9316 33.7372 73.938 33.7691 73.9503 33.7989C73.9627 33.8287 73.9808 33.8558 74.0037 33.8786C74.0266 33.9014 74.0538 33.9195 74.0838 33.9319C74.1138 33.9443 74.1459 33.9507 74.1784 33.9507H76.2992C76.3649 33.9507 76.4279 33.9248 76.4743 33.8787C76.5207 33.8326 76.5468 33.7702 76.5469 33.705V31.6017C76.5468 31.5365 76.5207 31.4741 76.4743 31.428C76.4279 31.3819 76.3649 31.3561 76.2992 31.356Z" fill="#E6E6E6"/>
<path id="Vector_48" d="M80.7524 17.0126H78.6315C78.566 17.0129 78.5033 17.0389 78.457 17.0849C78.4108 17.131 78.3848 17.1933 78.3849 17.2583V19.3626C78.3849 19.4275 78.4109 19.4897 78.4571 19.5356C78.5034 19.5815 78.5661 19.6073 78.6315 19.6073H80.7524C80.8179 19.6073 80.8807 19.5816 80.9272 19.5357C80.9736 19.4898 80.9998 19.4276 81 19.3626V17.2583C80.9998 17.1932 80.9736 17.1308 80.9273 17.0848C80.8809 17.0388 80.818 17.0128 80.7524 17.0126Z" fill="#C207C6"/>
<path id="Vector_49" d="M80.7524 20.5985H78.6315C78.566 20.5987 78.5033 20.6247 78.457 20.6708C78.4108 20.7168 78.3848 20.7792 78.3849 20.8442V22.9484C78.3849 23.0133 78.4109 23.0756 78.4571 23.1215C78.5034 23.1674 78.5661 23.1931 78.6315 23.1931H80.7524C80.8179 23.1932 80.8807 23.1674 80.9272 23.1216C80.9736 23.0757 80.9998 23.0134 81 22.9484V20.8442C80.9998 20.7791 80.9736 20.7167 80.9273 20.6707C80.8809 20.6246 80.818 20.5987 80.7524 20.5985Z" fill="#E6E6E6"/>
<path id="Vector_50" d="M80.7524 24.1843H78.6315C78.566 24.1846 78.5033 24.2106 78.457 24.2566C78.4108 24.3027 78.3848 24.365 78.3849 24.43V26.5333C78.3848 26.5655 78.3911 26.5974 78.4034 26.6272C78.4158 26.657 78.4339 26.6841 78.4568 26.7069C78.4798 26.7297 78.507 26.7478 78.537 26.7602C78.5669 26.7726 78.5991 26.779 78.6315 26.779H80.7524C80.818 26.779 80.881 26.7531 80.9274 26.707C80.9739 26.6609 81 26.5985 81 26.5333V24.43C80.9998 24.3649 80.9736 24.3025 80.9273 24.2565C80.8809 24.2105 80.818 24.1845 80.7524 24.1843Z" fill="#2A0839"/>
<path id="Vector_51" d="M80.7524 27.7702H78.6315C78.566 27.7704 78.5033 27.7964 78.457 27.8424C78.4108 27.8885 78.3848 27.9509 78.3849 28.0159V30.1192C78.3848 30.1514 78.3911 30.1833 78.4034 30.2131C78.4158 30.2429 78.4339 30.2699 78.4568 30.2928C78.4798 30.3156 78.507 30.3337 78.537 30.3461C78.5669 30.3584 78.5991 30.3648 78.6315 30.3648H80.7524C80.818 30.3648 80.881 30.3389 80.9274 30.2929C80.9739 30.2468 81 30.1843 81 30.1192V28.0159C80.9998 27.9508 80.9736 27.8884 80.9273 27.8423C80.8809 27.7963 80.818 27.7704 80.7524 27.7702Z" fill="#E6E6E6"/>
<path id="Vector_52" d="M80.7524 31.356H78.6315C78.5991 31.3561 78.5669 31.3624 78.537 31.3748C78.507 31.3872 78.4798 31.4053 78.4568 31.4281C78.4339 31.4509 78.4158 31.478 78.4034 31.5078C78.3911 31.5376 78.3848 31.5695 78.3849 31.6017V33.705C78.3848 33.7372 78.3911 33.7691 78.4034 33.7989C78.4158 33.8287 78.4339 33.8558 78.4568 33.8786C78.4798 33.9014 78.507 33.9195 78.537 33.9319C78.5669 33.9443 78.5991 33.9507 78.6315 33.9507H80.7524C80.818 33.9507 80.881 33.9248 80.9274 33.8787C80.9739 33.8326 81 33.7702 81 33.705V31.6017C81 31.5365 80.9739 31.4741 80.9274 31.428C80.881 31.3819 80.818 31.3561 80.7524 31.356Z" fill="#5B8AF9"/>
<path id="Vector_53" d="M32.0076 62.3673H31.9486L31.999 62.3607L32.0076 62.3673Z" fill="#2F2E41"/>
<path id="ab6171fa-7d69-4734-b81c-8dff60f9761b" d="M26.9335 23.1549C30.527 23.1549 33.4401 20.2646 33.4401 16.6992C33.4401 13.1339 30.527 10.2436 26.9335 10.2436C23.34 10.2436 20.4269 13.1339 20.4269 16.6992C20.4269 20.2646 23.34 23.1549 26.9335 23.1549Z" fill="#FFB6B6"/>
<path id="bf427902-b9bf-4946-b5d7-5c1c7e04535e" d="M32.6315 11.9661C32.6315 11.9661 34.3333 8.73826 30.5893 8.44482C30.5893 8.44482 27.3976 5.57215 24.1443 7.91965C24.1443 7.91965 22.3698 7.91965 21.3994 9.91201C21.3994 9.91201 20.0037 9.38684 19.697 10.7923C19.697 10.7923 18.6758 13.7267 19.697 16.3677C20.7183 19.0086 21.0575 19.302 21.0575 19.302C21.0575 19.302 19.3794 13.7652 23.464 13.4717C27.5487 13.1783 32.1195 10.6456 32.4599 13.8734C32.8004 17.1012 33.3126 17.8965 33.3126 17.8965C33.3126 17.8965 36.5458 13.2866 32.6315 11.9661Z" fill="#2F2E41"/>
<path id="Vector_54" d="M43.7645 32.6089L43.7436 32.7186L43.5083 33.9507L41.8827 42.4736L41.7865 42.9753L41.5846 44.0364L41.3084 45.484L40.6961 48.6919L40.5209 49.6112L40.4551 49.9561L40.4323 50.0771L40.2504 51.0286L40.1952 51.3158L39.7514 54.5785L39.3638 57.4217L40.6609 58.7086L39.8875 59.4758L39.38 62.3606L39.3809 62.3672H18.6647C17.8266 61.8286 17.0006 61.2733 16.1867 60.7014L16.3572 59.4352C16.3572 59.4352 16.9438 57.1741 16.6971 56.9039C16.4515 56.6336 15.9124 56.1508 15.9124 56.1508L16.5915 54.5785L16.6857 54.3602L16.5276 51.107L16.5238 51.0286L16.4715 49.9561L16.4648 49.8182L16.4543 49.6112L16.2534 45.484L16.2496 45.4159L16.1886 44.1649L16.1315 42.9753L16.1067 42.4736L15.862 37.4534L15.6963 34.0442L15.5515 31.0763L16.1334 30.8807L22.3569 28.7821L24.9349 25.4571L30.3004 25.4968L32.9269 25.5166L37.3096 29.5494L38.3067 30.0218L38.3143 30.0256L39.0295 30.3648L40.8428 31.2237L42.7598 32.1327L43.7436 32.5985L43.7645 32.6089Z" fill="#C207C6"/>
<path id="Vector_55" d="M25.6283 52.6822C25.2351 52.8334 24.8133 52.8971 24.3926 52.869C23.9719 52.8409 23.5625 52.7216 23.1933 52.5196C22.8241 52.3175 22.504 52.0376 22.2556 51.6995C22.0072 51.3614 21.8366 50.9734 21.7557 50.5629L11.6077 49.1344L15.1354 45.1751L24.2313 47.1386C24.9355 47.0495 25.6482 47.2198 26.2343 47.6172C26.8205 48.0146 27.2393 48.6115 27.4115 49.2948C27.5837 49.9781 27.4973 50.7004 27.1686 51.3247C26.84 51.949 26.2919 52.4321 25.6283 52.6822Z" fill="#FFB6B6"/>
<path id="Vector_56" d="M21.1036 45.484C20.9156 45.2475 20.6495 45.0845 20.3522 45.0238L16.1886 44.1649L15.761 44.077C15.5125 44.0256 15.2778 43.9226 15.0721 43.775C14.8665 43.6273 14.6946 43.4382 14.5677 43.22C14.4361 42.991 14.3565 42.7363 14.3344 42.4736C14.3146 42.2347 14.3434 41.9944 14.4192 41.7668L15.862 37.4534L16.7981 34.6546C16.9116 34.3171 16.9785 33.9659 16.9972 33.6105C17.0493 32.6272 16.7427 31.6581 16.1334 30.8808C15.5977 30.1975 14.8548 29.7034 14.0143 29.4713C13.1738 29.2392 12.2804 29.2815 11.466 29.5919C11.4422 29.6004 11.4174 29.6099 11.3936 29.6193C10.8095 29.8507 10.2877 30.2137 9.86941 30.6796C9.45108 31.1455 9.14769 31.7015 8.98322 32.3037L7.96612 35.9746L5.86812 43.5422C5.6581 44.3004 5.61567 45.0947 5.74373 45.8707C5.8718 46.6467 6.16733 47.3861 6.61011 48.0382C7.05289 48.6904 7.63246 49.2399 8.30914 49.6492C8.98583 50.0585 9.74366 50.3179 10.5308 50.4097L16.5276 51.107L19.3028 51.4301C19.6237 51.4684 19.9473 51.3853 20.2092 51.1974C20.4711 51.0095 20.6521 50.7306 20.716 50.4163C20.7205 50.3992 20.724 50.3818 20.7265 50.3643L20.7932 49.9561L21.3579 46.5186L21.3636 46.4837C21.393 46.3082 21.3851 46.1287 21.3403 45.9565C21.2956 45.7843 21.2149 45.6234 21.1036 45.484Z" fill="#C207C6"/>
<path id="Vector_57" d="M32.0921 52.7924C32.5029 52.887 32.9295 52.8912 33.342 52.8045C33.7545 52.7178 34.1429 52.5424 34.4797 52.2907C34.8165 52.039 35.0936 51.7171 35.2914 51.3476C35.4893 50.9782 35.6031 50.5702 35.6248 50.1524L45.4684 47.3183L41.4131 43.8922L32.6872 47.1088C31.9774 47.119 31.296 47.3873 30.7722 47.8628C30.2484 48.3382 29.9186 48.9878 29.8452 49.6883C29.7719 50.3889 29.9601 51.0919 30.3742 51.664C30.7883 52.2361 31.3996 52.6376 32.0921 52.7924Z" fill="#FFB6B6"/>
<path id="Vector_58" d="M50.3557 40.9788L45.674 30.2883C45.291 29.4106 44.6071 28.6959 43.7436 28.271C43.4766 28.1406 43.1963 28.0392 42.9074 27.9686C42.8627 27.9573 42.8179 27.9469 42.7731 27.9384C42.1606 27.8057 41.5252 27.8174 40.918 27.9724C40.3629 28.1139 39.8442 28.3698 39.3955 28.7236C38.9469 29.0774 38.5785 29.5211 38.3143 30.0256C38.3114 30.0298 38.3089 30.0342 38.3067 30.0388C38.0116 30.6053 37.8546 31.2325 37.8485 31.8701C37.8424 32.5077 37.9873 33.1378 38.2714 33.7097L38.3295 33.825L41.638 40.4175C41.7509 40.6429 41.8146 40.8895 41.8247 41.1411C41.8349 41.3926 41.7913 41.6435 41.6969 41.8771C41.6025 42.1108 41.4593 42.3221 41.2768 42.497C41.0943 42.6719 40.8766 42.8066 40.638 42.8921L40.4056 42.9753L36.2268 44.4729C35.9132 44.584 35.6553 44.8114 35.5073 45.1073C35.3593 45.4032 35.3329 45.7445 35.4335 46.0594L35.4439 46.0925L36.6153 49.8115C36.621 49.8286 36.6267 49.8456 36.6334 49.8626C36.6437 49.8947 36.6564 49.9259 36.6715 49.9561C36.796 50.2331 37.016 50.457 37.292 50.5874C37.568 50.7178 37.8819 50.7463 38.1771 50.6676L40.4323 50.0771L40.8923 49.9561L46.7158 48.4301C47.4821 48.2292 48.1955 47.8664 48.8073 47.3665C49.4192 46.8666 49.9149 46.2415 50.2605 45.5338C50.6062 44.8262 50.7936 44.0528 50.8101 43.2666C50.8265 42.4804 50.6715 41.7 50.3557 40.9788Z" fill="#C207C6"/>
<path id="Vector_59" d="M4.27581 49.9561C5.62532 51.5892 7.08072 53.1333 8.63276 54.5785H51.6756C52.0903 54.5792 52.4878 54.7429 52.7809 55.034C53.0741 55.325 53.2389 55.7195 53.2393 56.131L53.3012 66.9527C55.9492 65.7457 58.4289 64.2044 60.679 62.3672C61.3037 61.8579 61.9091 61.3266 62.4951 60.7732C62.8789 60.4122 63.2535 60.0425 63.6189 59.6639C66.3582 56.8325 68.5763 53.547 70.1729 49.9561H4.27581Z" fill="#3F3D56"/>
<path id="Vector_60" d="M63.6189 59.6639C63.2541 60.0428 62.8795 60.4125 62.4951 60.7732H53.3327V59.6639H63.6189Z" fill="white"/>
<path id="Vector_61" d="M43.6788 24.1843C43.6336 24.1014 43.5666 24.0322 43.4849 23.984C43.4033 23.9358 43.31 23.9103 43.215 23.9103H11.9936C11.8536 23.9107 11.7195 23.9661 11.6206 24.0644C11.5217 24.1627 11.4661 24.2958 11.466 24.4347V42.9753H43.7436V24.4347C43.7441 24.3471 43.7218 24.2609 43.6788 24.1843Z" fill="#3F3D56"/>
<path id="Vector_62" d="M11.4377 42.4733V44.7613C11.4377 44.8561 11.4565 44.95 11.4931 45.0377C11.5297 45.1253 11.5833 45.2049 11.6509 45.272C11.7185 45.339 11.7987 45.3922 11.8871 45.4285C11.9754 45.4648 12.07 45.4835 12.1656 45.4835H24.0791V49.9988H23.9208C23.9084 49.9988 23.8961 50.0012 23.8846 50.006C23.8732 50.0107 23.8627 50.0176 23.8539 50.0263C23.8452 50.035 23.8382 50.0453 23.8335 50.0567C23.8287 50.0681 23.8263 50.0803 23.8263 50.0926V50.4067C23.8263 50.419 23.8287 50.4312 23.8334 50.4426C23.8382 50.454 23.8452 50.4643 23.8539 50.473C23.8627 50.4818 23.8732 50.4887 23.8846 50.4934C23.8961 50.4981 23.9084 50.5005 23.9208 50.5005H31.3165C31.3289 50.5005 31.3412 50.4981 31.3527 50.4934C31.3642 50.4887 31.3746 50.4818 31.3834 50.473C31.3922 50.4643 31.3991 50.454 31.4039 50.4426C31.4086 50.4312 31.4111 50.419 31.4111 50.4067V50.0926C31.4111 50.0803 31.4086 50.0681 31.4039 50.0567C31.3991 50.0453 31.3922 50.035 31.3834 50.0263C31.3746 50.0176 31.3642 50.0107 31.3527 50.006C31.3412 50.0012 31.3289 49.9988 31.3165 49.9988H31.1583V45.4835H43.0717C43.1673 45.4835 43.262 45.4648 43.3503 45.4285C43.4386 45.3922 43.5188 45.339 43.5864 45.272C43.654 45.2049 43.7077 45.1253 43.7442 45.0377C43.7808 44.95 43.7997 44.8561 43.7997 44.7613V42.4733H11.4377Z" fill="#3F3D56"/>
<path id="Vector_63" d="M27.2276 35.9067C28.8742 35.9067 30.2091 34.5823 30.2091 32.9486C30.2091 31.3148 28.8742 29.9905 27.2276 29.9905C25.581 29.9905 24.2462 31.3148 24.2462 32.9486C24.2462 34.5823 25.581 35.9067 27.2276 35.9067Z" fill="#2A0839"/>
<path id="Vector_64" d="M34.824 16.3465H34.3478C34.3478 12.7748 30.7851 10.4343 27.191 10.4325C26.6682 10.4309 26.1466 10.4813 25.6339 10.5827C25.0568 10.697 24.4578 10.834 23.8692 11.0126C21.5484 11.7184 19.3961 13.0829 19.3961 16.3465C19.3956 16.9803 19.4769 17.6116 19.638 18.2249L19.177 18.344C19.0061 17.6917 18.9197 17.0205 18.9199 16.3465C18.9199 13.4948 20.0999 11.5361 22.1379 10.3682C23.2092 9.75402 24.5168 9.35812 26.0148 9.16536C26.6382 9.08308 27.2684 9.06408 27.8957 9.10867C32.0289 9.40347 34.824 12.5481 34.824 16.3465Z" fill="#2A0839"/>
<path id="Vector_65" d="M35.6173 16.6082L35.4297 15.2325C35.3834 14.885 35.2147 14.5651 34.9535 14.3292C34.7858 14.1754 34.5851 14.0614 34.3664 13.996C34.1478 13.9305 33.9171 13.9152 33.6916 13.9512L33.3936 13.9918C33.312 14.0025 33.2334 14.0291 33.1623 14.0701C33.0911 14.1112 33.0289 14.1658 32.9793 14.2309C32.9292 14.2957 32.8926 14.3698 32.8715 14.4488C32.8504 14.5278 32.8453 14.6101 32.8564 14.6911L33.2898 17.8602C33.3076 17.9894 33.366 18.1097 33.4565 18.2042C33.5471 18.2986 33.6653 18.3624 33.7945 18.3865C33.8327 18.3941 33.8717 18.3979 33.9107 18.3978C33.9387 18.3978 33.9667 18.3959 33.9945 18.3922L34.3278 18.3478C34.531 18.321 34.7266 18.2533 34.9025 18.1488C35.0784 18.0444 35.2309 17.9053 35.3506 17.7402C35.3763 17.7043 35.4011 17.6674 35.4239 17.6296C35.6024 17.3205 35.6706 16.9606 35.6173 16.6082Z" fill="#2A0839"/>
<path id="Vector_66" d="M33.2012 14.0495C33.1138 14.0916 33.0377 14.1538 32.9793 14.2309C32.9292 14.2958 32.8926 14.3698 32.8715 14.4488C32.8504 14.5278 32.8453 14.6101 32.8564 14.6911L33.2898 17.8602C33.3076 17.9894 33.366 18.1097 33.4565 18.2042C33.5471 18.2986 33.6653 18.3624 33.7945 18.3865L33.2012 14.0495Z" fill="white"/>
<path id="Vector_67" d="M35.6173 16.6082L35.4297 15.2325C35.3834 14.885 35.2147 14.5651 34.9535 14.3292L35.3849 17.4822C35.3914 17.5329 35.4045 17.5824 35.4239 17.6297C35.6024 17.3205 35.6706 16.9606 35.6173 16.6082Z" fill="#3F3D56"/>
<path id="Vector_68" d="M34.1345 17.5995C34.2648 17.5819 34.3303 17.2743 34.2808 16.9123C34.2313 16.5503 34.0856 16.2711 33.9553 16.2886C33.825 16.3062 33.7595 16.6138 33.809 16.9758C33.8585 17.3378 34.0042 17.617 34.1345 17.5995Z" fill="#3F3D56"/>
<path id="Vector_69" d="M33.8488 15.8987C33.9791 15.8811 34.0446 15.5735 33.9951 15.2115C33.9456 14.8495 33.7999 14.5703 33.6696 14.5879C33.5393 14.6054 33.4738 14.913 33.5233 15.275C33.5728 15.637 33.7185 15.9162 33.8488 15.8987Z" fill="#3F3D56"/>
<path id="Vector_70" d="M35.6582 16.5601C35.7885 16.5426 35.854 16.2349 35.8046 15.8729C35.7551 15.511 35.6093 15.2317 35.479 15.2493C35.3487 15.2668 35.2832 15.5745 35.3327 15.9364C35.3822 16.2984 35.528 16.5776 35.6582 16.5601Z" fill="#3F3D56"/>
<path id="Vector_71" d="M27.191 10.4324C26.6682 10.4309 26.1466 10.4813 25.6339 10.5827C25.0568 10.697 24.4578 10.834 23.8692 11.0126C22.9502 10.9682 22.274 10.732 22.1379 10.3682C23.2092 9.75402 24.5168 9.35811 26.0148 9.16536C26.6382 9.08307 27.2684 9.06408 27.8957 9.10866C27.9621 9.14729 28.0195 9.19942 28.0642 9.26163C28.1088 9.32384 28.1397 9.39472 28.1547 9.46961C28.1995 9.79843 27.8214 10.148 27.191 10.4324Z" fill="#3F3D56"/>
<path id="Vector_72" d="M21.1113 19.6253L20.378 16.6007C20.3518 16.4916 20.2937 16.3925 20.2111 16.316C20.1284 16.2396 20.0248 16.189 19.9132 16.1708C19.8817 16.1659 19.8499 16.1634 19.818 16.1632C19.7731 16.1634 19.7283 16.1687 19.6846 16.1793L19.4009 16.2473C19.0355 16.335 18.72 16.5629 18.5238 16.881C18.3276 17.1992 18.2666 17.5816 18.3542 17.9443L18.6828 19.3012C18.7578 19.6206 18.9365 19.9068 19.1913 20.1157C19.2326 20.1487 19.2759 20.1793 19.3209 20.2073C19.4805 20.3066 19.6586 20.3731 19.8445 20.403C20.0305 20.4328 20.2206 20.4254 20.4037 20.3812L20.6865 20.3131C20.7613 20.2958 20.8317 20.2633 20.8932 20.2177C20.9846 20.1515 21.0542 20.0599 21.093 19.9544C21.1319 19.8489 21.1382 19.7343 21.1113 19.6253Z" fill="#2A0839"/>
<path id="Vector_73" d="M19.574 19.0625C19.7018 19.032 19.7356 18.7193 19.6495 18.3642C19.5633 18.009 19.3899 17.7458 19.262 17.7764C19.1342 17.8069 19.1004 18.1195 19.1865 18.4747C19.2726 18.8299 19.4461 19.093 19.574 19.0625Z" fill="#3F3D56"/>
<path id="Vector_74" d="M18.6216 19.346C18.7495 19.3154 18.7833 19.0028 18.6971 18.6476C18.611 18.2925 18.4375 18.0293 18.3097 18.0598C18.1818 18.0904 18.148 18.403 18.2342 18.7582C18.3203 19.1133 18.4938 19.3765 18.6216 19.346Z" fill="#3F3D56"/>
<path id="Vector_75" d="M21.1579 19.6139L20.4246 16.5893C20.396 16.4713 20.333 16.3642 20.2434 16.2815C20.1538 16.1988 20.0416 16.1442 19.9208 16.1244L20.9217 20.2555C21.0206 20.1837 21.0958 20.0844 21.1378 19.9702C21.1798 19.856 21.1868 19.732 21.1579 19.6139Z" fill="white"/>
<path id="Vector_76" d="M18.5199 17.3452C18.4997 17.2611 18.4617 17.1822 18.4085 17.1137C18.3054 17.3786 18.2865 17.6684 18.3542 17.9443L18.6828 19.3012C18.7578 19.6206 18.9365 19.9068 19.1913 20.1157L18.5199 17.3452Z" fill="#3F3D56"/>
</g>
<defs>
<clipPath id="clip0_1469_98">
<rect width="81" height="70" fill="white"/>
</clipPath>
</defs>
</svg>
