<svg width="81" height="61" viewBox="0 0 81 61" fill="none" xmlns="http://www.w3.org/2000/svg">
<g id="undraw_followers_re_6k3g 1" clip-path="url(#clip0_1469_251)">
<path id="Vector" d="M66.0827 43.4751H1.68144C1.24182 43.4746 0.820346 43.3005 0.509486 42.991C0.198626 42.6815 0.0237665 42.2619 0.0232697 41.8243V2.29047C0.0236279 1.96984 0.151727 1.66243 0.379463 1.43571C0.607198 1.20898 0.915973 1.08144 1.23805 1.08107H66.5051C66.8327 1.08144 67.1469 1.21118 67.3785 1.44183C67.6102 1.67248 67.7405 1.9852 67.7409 2.31138V41.8243C67.7404 42.2619 67.5656 42.6815 67.2547 42.991C66.9438 43.3005 66.5224 43.4746 66.0827 43.4751Z" fill="#793696"/>
<path id="Vector_2" d="M64.0005 41.3909H3.98017C3.10034 41.3909 2.38455 40.7236 2.38455 39.9033V5.47679C2.38455 4.8685 2.91497 4.37359 3.56694 4.37359H64.3941C65.0569 4.37359 65.5961 4.87666 65.5961 5.49496V39.9033C65.5961 40.7236 64.8803 41.3909 64.0005 41.3909Z" fill="#C207C6"/>
<path id="Vector_3" d="M67.7178 2.49615H0V1.65572C0.000637508 1.2166 0.176211 0.795669 0.488202 0.485263C0.800193 0.174857 1.22312 0.000328451 1.66421 -3.43323e-05H66.0536C66.4947 0.000326601 66.9176 0.174855 67.2296 0.485261C67.5416 0.795668 67.7172 1.2166 67.7178 1.65572V2.49615Z" fill="#3F3D56"/>
<path id="Vector_4" d="M3.02444 1.67912C3.26218 1.67912 3.45491 1.48726 3.45491 1.25058C3.45491 1.01391 3.26218 0.822041 3.02444 0.822041C2.7867 0.822041 2.59398 1.01391 2.59398 1.25058C2.59398 1.48726 2.7867 1.67912 3.02444 1.67912Z" fill="white"/>
<path id="Vector_5" d="M4.65838 1.67912C4.89612 1.67912 5.08885 1.48726 5.08885 1.25058C5.08885 1.01391 4.89612 0.822041 4.65838 0.822041C4.42065 0.822041 4.22792 1.01391 4.22792 1.25058C4.22792 1.48726 4.42065 1.67912 4.65838 1.67912Z" fill="white"/>
<path id="Vector_6" d="M6.29231 1.67912C6.53005 1.67912 6.72277 1.48726 6.72277 1.25058C6.72277 1.01391 6.53005 0.822041 6.29231 0.822041C6.05457 0.822041 5.86185 1.01391 5.86185 1.25058C5.86185 1.48726 6.05457 1.67912 6.29231 1.67912Z" fill="white"/>
<path id="Vector_7" d="M19.3301 9.78111H8.72276C8.51159 9.78106 8.30248 9.82242 8.10737 9.90285C7.91226 9.98327 7.73498 10.1012 7.58566 10.2498C7.43634 10.3985 7.3179 10.575 7.23712 10.7692C7.15633 10.9635 7.11478 11.1716 7.11484 11.3819V18.5682C7.11478 18.7784 7.15633 18.9866 7.23712 19.1809C7.3179 19.3751 7.43634 19.5516 7.58566 19.7002C7.73498 19.8489 7.91226 19.9668 8.10737 20.0472C8.30248 20.1276 8.51159 20.169 8.72276 20.169H19.3301C19.7565 20.1689 20.1655 20.0002 20.467 19.7001C20.7685 19.3999 20.9379 18.9927 20.938 18.5682V11.3819C20.9379 10.9573 20.7685 10.5502 20.467 10.25C20.1655 9.94983 19.7565 9.78117 19.3301 9.78111Z" fill="#2A0839"/>
<path id="Vector_8" d="M26.8118 11.3815V18.5687C26.8118 18.9932 26.9812 19.4004 27.2828 19.7006C27.5843 20.0008 27.9933 20.1694 28.4197 20.1694H39.0268C39.4533 20.1694 39.8622 20.0008 40.1638 19.7006C40.4653 19.4004 40.6347 18.9932 40.6347 18.5687V11.3815C40.6347 10.9569 40.4653 10.5498 40.1638 10.2496C39.8622 9.94939 39.4533 9.78074 39.0268 9.78074H28.4197C27.9933 9.78074 27.5843 9.94939 27.2828 10.2496C26.9812 10.5498 26.8118 10.9569 26.8118 11.3815Z" fill="#2A0839"/>
<path id="Vector_9" d="M46.5089 11.3815V18.5687C46.5089 18.9932 46.6783 19.4004 46.9798 19.7006C47.2814 20.0008 47.6904 20.1694 48.1168 20.1694H58.7239C59.1503 20.1694 59.5593 20.0008 59.8609 19.7006C60.1624 19.4004 60.3318 18.9932 60.3318 18.5687V11.3815C60.3318 10.9569 60.1624 10.5498 59.8609 10.2496C59.5593 9.94939 59.1503 9.78074 58.7239 9.78074H48.1168C47.6904 9.78074 47.2814 9.94939 46.9798 10.2496C46.6783 10.5498 46.5089 10.9569 46.5089 11.3815Z" fill="#CCB7CC"/>
<path id="Vector_10" d="M7.11472 27.2889V34.4761C7.11472 34.9006 7.28412 35.3078 7.58567 35.608C7.88721 35.9082 8.29619 36.0769 8.72264 36.0769H19.3297C19.7562 36.0769 20.1651 35.9082 20.4667 35.608C20.7682 35.3078 20.9376 34.9006 20.9376 34.4761V27.2889C20.9376 26.8644 20.7682 26.4572 20.4667 26.157C20.1651 25.8568 19.7562 25.6882 19.3297 25.6882H8.72264C8.29619 25.6882 7.88721 25.8568 7.58567 26.157C7.28412 26.4572 7.11472 26.8644 7.11472 27.2889Z" fill="#CCB7CC"/>
<path id="Vector_11" d="M26.8118 27.2889V34.4761C26.8118 34.9006 26.9812 35.3078 27.2828 35.608C27.5843 35.9082 27.9933 36.0769 28.4197 36.0769H39.0268C39.4533 36.0769 39.8622 35.9082 40.1638 35.608C40.4653 35.3078 40.6347 34.9006 40.6347 34.4761V27.2889C40.6347 26.8644 40.4653 26.4572 40.1638 26.157C39.8622 25.8568 39.4533 25.6882 39.0268 25.6882H28.4197C27.9933 25.6882 27.5843 25.8568 27.2828 26.157C26.9812 26.4572 26.8118 26.8644 26.8118 27.2889Z" fill="#CCB7CC"/>
<path id="Vector_12" d="M46.5089 27.2889V34.4761C46.5089 34.9006 46.6783 35.3078 46.9798 35.608C47.2814 35.9082 47.6904 36.0769 48.1168 36.0769H58.7239C59.1503 36.0769 59.5593 35.9082 59.8609 35.608C60.1624 35.3078 60.3318 34.9006 60.3318 34.4761V27.2889C60.3318 26.8644 60.1624 26.4572 59.8609 26.157C59.5593 25.8568 59.1503 25.6882 58.7239 25.6882H48.1168C47.6904 25.6882 47.2814 25.8568 46.9798 26.157C46.6783 26.4572 46.5089 26.8644 46.5089 27.2889Z" fill="#2A0839"/>
<path id="Vector_13" d="M14.0262 17.1761C15.2472 17.1761 16.2371 16.1907 16.2371 14.9751C16.2371 13.7595 15.2472 12.7741 14.0262 12.7741C12.8051 12.7741 11.8153 13.7595 11.8153 14.9751C11.8153 16.1907 12.8051 17.1761 14.0262 17.1761Z" fill="white"/>
<path id="Vector_14" d="M17.4046 20.3691H10.6473C10.8052 20.0658 11.0089 19.7884 11.2512 19.5467C11.5588 19.2398 11.9243 18.9964 12.3267 18.8305C12.729 18.6647 13.1603 18.5796 13.5958 18.5802H14.4561C15.0652 18.5799 15.6626 18.7467 16.1827 19.0623C16.7029 19.3779 17.1256 19.83 17.4046 20.3691Z" fill="white"/>
<path id="Vector_15" d="M33.7233 17.1761C34.9443 17.1761 35.9342 16.1907 35.9342 14.9751C35.9342 13.7595 34.9443 12.7741 33.7233 12.7741C32.5022 12.7741 31.5124 13.7595 31.5124 14.9751C31.5124 16.1907 32.5022 17.1761 33.7233 17.1761Z" fill="white"/>
<path id="Vector_16" d="M37.1017 20.3691H30.3444C30.5023 20.0658 30.706 19.7884 30.9483 19.5467C31.2559 19.2398 31.6214 18.9964 32.0238 18.8305C32.4261 18.6647 32.8574 18.5796 33.2929 18.5802H34.1532C34.7623 18.5799 35.3597 18.7467 35.8798 19.0623C36.4 19.3779 36.8227 19.83 37.1017 20.3691Z" fill="white"/>
<path id="Vector_17" d="M53.4204 17.1761C54.6414 17.1761 55.6313 16.1907 55.6313 14.9751C55.6313 13.7595 54.6414 12.7741 53.4204 12.7741C52.1993 12.7741 51.2095 13.7595 51.2095 14.9751C51.2095 16.1907 52.1993 17.1761 53.4204 17.1761Z" fill="white"/>
<path id="Vector_18" d="M56.7988 20.3691H50.0415C50.1993 20.0658 50.403 19.7884 50.6454 19.5467C50.953 19.2398 51.3185 18.9964 51.7208 18.8305C52.1232 18.6647 52.5545 18.5796 52.99 18.5802H53.8502C54.4594 18.5799 55.0568 18.7467 55.5769 19.0623C56.097 19.3779 56.5198 19.83 56.7988 20.3691Z" fill="white"/>
<path id="Vector_19" d="M14.0262 33.0835C15.2472 33.0835 16.2371 32.0981 16.2371 30.8825C16.2371 29.6669 15.2472 28.6815 14.0262 28.6815C12.8051 28.6815 11.8153 29.6669 11.8153 30.8825C11.8153 32.0981 12.8051 33.0835 14.0262 33.0835Z" fill="white"/>
<path id="Vector_20" d="M17.4046 36.2765H10.6473C10.8052 35.9732 11.0089 35.6958 11.2512 35.4541C11.5588 35.1472 11.9243 34.9038 12.3267 34.738C12.729 34.5721 13.1603 34.487 13.5958 34.4876H14.4561C15.0652 34.4874 15.6626 34.6542 16.1827 34.9697C16.7029 35.2853 17.1256 35.7374 17.4046 36.2765Z" fill="white"/>
<path id="Vector_21" d="M33.7233 33.0835C34.9443 33.0835 35.9342 32.0981 35.9342 30.8825C35.9342 29.6669 34.9443 28.6815 33.7233 28.6815C32.5022 28.6815 31.5124 29.6669 31.5124 30.8825C31.5124 32.0981 32.5022 33.0835 33.7233 33.0835Z" fill="white"/>
<path id="Vector_22" d="M37.1017 36.2765H30.3444C30.5023 35.9732 30.706 35.6958 30.9483 35.4541C31.2559 35.1472 31.6214 34.9038 32.0238 34.738C32.4261 34.5721 32.8574 34.487 33.2929 34.4876H34.1532C34.7623 34.4874 35.3597 34.6542 35.8798 34.9697C36.4 35.2853 36.8227 35.7374 37.1017 36.2765Z" fill="white"/>
<path id="Vector_23" d="M53.4204 33.0835C54.6414 33.0835 55.6313 32.0981 55.6313 30.8825C55.6313 29.6669 54.6414 28.6815 53.4204 28.6815C52.1993 28.6815 51.2095 29.6669 51.2095 30.8825C51.2095 32.0981 52.1993 33.0835 53.4204 33.0835Z" fill="white"/>
<path id="Vector_24" d="M56.7988 36.2765H50.0415C50.1993 35.9732 50.403 35.6958 50.6454 35.4541C50.953 35.1472 51.3185 34.9038 51.7208 34.738C52.1232 34.5721 52.5545 34.487 52.99 34.4876H53.8502C54.4594 34.4874 55.0568 34.6542 55.5769 34.9697C56.097 35.2853 56.5198 35.7374 56.7988 36.2765Z" fill="white"/>
<path id="Vector_25" d="M80.8995 61H54.6702C54.6436 61 54.618 60.9895 54.5992 60.9707C54.5803 60.9519 54.5697 60.9265 54.5697 60.9C54.5697 60.8734 54.5803 60.848 54.5992 60.8292C54.618 60.8105 54.6436 60.7999 54.6702 60.7999H80.8995C80.9261 60.7999 80.9517 60.8105 80.9706 60.8292C80.9894 60.848 81 60.8734 81 60.9C81 60.9265 80.9894 60.9519 80.9706 60.9707C80.9517 60.9895 80.9261 61 80.8995 61Z" fill="#3F3D56"/>
<path id="Vector_26" d="M67.4038 59.7801L66.1718 59.78L65.5857 55.049L67.404 55.0491L67.4038 59.7801Z" fill="#A0616A"/>
<path id="Vector_27" d="M65.2918 59.4295H67.6679V60.9189H63.7957C63.7957 60.7233 63.8344 60.5297 63.9096 60.349C63.9848 60.1683 64.095 60.0041 64.2339 59.8658C64.3728 59.7275 64.5377 59.6178 64.7192 59.5429C64.9008 59.4681 65.0953 59.4295 65.2918 59.4295Z" fill="#2F2E41"/>
<path id="Vector_28" d="M72.0266 59.7801L70.7946 59.78L70.2085 55.049L72.0268 55.0491L72.0266 59.7801Z" fill="#A0616A"/>
<path id="Vector_29" d="M69.9145 59.4295H72.2906V60.9189H68.4185C68.4185 60.7233 68.4572 60.5297 68.5324 60.349C68.6076 60.1683 68.7177 60.0041 68.8567 59.8658C68.9956 59.7275 69.1605 59.6178 69.342 59.5429C69.5235 59.4681 69.7181 59.4295 69.9145 59.4295Z" fill="#2F2E41"/>
<path id="Vector_30" d="M71.8762 45.6896C71.7434 45.6046 71.631 45.4917 71.5469 45.3588C71.4627 45.2258 71.4089 45.0762 71.3891 44.9203C71.3693 44.7644 71.3842 44.6061 71.4325 44.4565C71.4808 44.3069 71.5615 44.1697 71.6689 44.0546L70.8577 32.5934L73.1945 32.8191L73.2587 44.043C73.4411 44.2353 73.5462 44.4877 73.5542 44.7521C73.5622 45.0165 73.4725 45.2747 73.3021 45.4776C73.1317 45.6806 72.8924 45.8143 72.6296 45.8534C72.3668 45.8925 72.0987 45.8342 71.8762 45.6896Z" fill="#A0616A"/>
<path id="Vector_31" d="M67.3457 57.3967L65.9893 57.3323C65.8738 57.3268 65.7648 57.2775 65.6846 57.1945C65.6045 57.1114 65.5594 57.0009 65.5586 56.8858C65.2011 51.3913 64.7058 45.4998 65.464 43.2238C65.4635 43.1589 65.4772 43.0947 65.5039 43.0356C65.5307 42.9765 65.57 42.9238 65.6191 42.8812C65.6682 42.8386 65.726 42.807 65.7885 42.7887C65.851 42.7704 65.9167 42.7657 65.9812 42.775L71.4073 43.5592C71.5145 43.5741 71.6127 43.6271 71.6838 43.7083C71.755 43.7895 71.7943 43.8936 71.7945 44.0014C72.4873 46.6963 72.5186 51.5831 72.4924 56.6607C72.4929 56.7201 72.4815 56.779 72.459 56.834C72.4364 56.889 72.4032 56.9391 72.3612 56.9812C72.3191 57.0234 72.2691 57.0569 72.214 57.0797C72.1589 57.1025 72.0999 57.1143 72.0402 57.1143H70.578C70.4701 57.1147 70.3657 57.0766 70.2837 57.0068C70.2017 56.937 70.1476 56.8402 70.1312 56.7341L69.2291 51.0247C69.2159 50.9411 69.1728 50.8652 69.1077 50.8108C69.0427 50.7564 68.9601 50.7273 68.8751 50.7289C68.7902 50.7305 68.7087 50.7626 68.6457 50.8193C68.5827 50.876 68.5424 50.9535 68.5324 51.0375L67.8162 57.0005C67.8027 57.1097 67.7497 57.2103 67.667 57.2834C67.5843 57.3564 67.4777 57.3969 67.3671 57.3973C67.36 57.3973 67.3529 57.3971 67.3457 57.3967Z" fill="#2F2E41"/>
<path id="Vector_32" d="M68.3005 44.0019C67.1046 43.3405 66.1703 43.1667 65.7197 43.1219C65.6599 43.1162 65.6018 43.0984 65.5491 43.0696C65.4963 43.0409 65.45 43.0017 65.4129 42.9546C65.375 42.9071 65.3471 42.8525 65.331 42.794C65.3149 42.7355 65.311 42.6744 65.3193 42.6143L66.6195 33.0047C66.6943 32.4425 66.9124 31.9088 67.253 31.4542C67.5937 30.9997 68.0454 30.6394 68.5654 30.4078C69.0687 30.1775 69.6229 30.0792 70.1751 30.1223C70.7274 30.1654 71.2594 30.3484 71.7205 30.654C71.7651 30.6835 71.8088 30.7137 71.8517 30.7444C72.3827 31.1317 72.7867 31.6669 73.0127 32.2825C73.2387 32.898 73.2766 33.5664 73.1216 34.2033C72.3243 37.4504 72.0504 42.7735 72.0036 43.8077C72 43.8959 71.9701 43.9809 71.918 44.0523C71.8658 44.1236 71.7935 44.1779 71.7104 44.2084C71.2198 44.3859 70.7022 44.4776 70.1803 44.4796C69.5229 44.4836 68.8755 44.3191 68.3005 44.0019Z" fill="#461C58"/>
<path id="Vector_33" d="M71.3867 36.4445C71.3319 36.4054 71.2867 36.3544 71.2544 36.2956C71.2221 36.2367 71.2034 36.1713 71.1999 36.1043L71.0286 33.0153C71.0117 32.7092 71.1092 32.4078 71.3023 32.169C71.4954 31.9303 71.7704 31.7712 72.0743 31.7224C72.3783 31.6736 72.6896 31.7385 72.9483 31.9047C73.207 32.0709 73.3948 32.3266 73.4753 32.6224L74.2275 35.3842C74.2587 35.4994 74.2428 35.6223 74.1832 35.7258C74.1235 35.8294 74.0251 35.9051 73.9094 35.9365L71.7698 36.514C71.7047 36.5317 71.6366 36.5346 71.5703 36.5226C71.504 36.5106 71.4412 36.4839 71.3867 36.4445Z" fill="#461C58"/>
<path id="Vector_34" d="M69.388 29.103C70.7512 29.103 71.8562 28.0029 71.8562 26.6458C71.8562 25.2887 70.7512 24.1885 69.388 24.1885C68.0248 24.1885 66.9197 25.2887 66.9197 26.6458C66.9197 28.0029 68.0248 29.103 69.388 29.103Z" fill="#A0616A"/>
<path id="Vector_35" d="M60.4435 31.4735C60.4559 31.5275 60.4639 31.5823 60.4676 31.6376L64.7846 34.1169L65.8339 33.5156L66.9525 34.9735L64.7078 36.5663L59.7827 32.6982C59.5818 32.7722 59.3631 32.7836 59.1556 32.7308C58.948 32.678 58.7616 32.5636 58.621 32.4027C58.4804 32.2419 58.3923 32.0422 58.3684 31.8303C58.3446 31.6184 58.3861 31.4043 58.4874 31.2165C58.5888 31.0286 58.7452 30.876 58.9358 30.7788C59.1265 30.6816 59.3423 30.6444 59.5547 30.6723C59.767 30.7002 59.9658 30.7918 60.1246 30.9349C60.2833 31.0781 60.3946 31.2659 60.4435 31.4735Z" fill="#A0616A"/>
<path id="Vector_36" d="M64.9388 33.9061C64.9316 33.8394 64.9395 33.7719 64.962 33.7086C64.9845 33.6454 65.021 33.5879 65.0687 33.5406L67.2659 31.3527C67.4836 31.136 67.7742 31.0071 68.0817 30.9911C68.3891 30.975 68.6917 31.0728 68.931 31.2657C69.1703 31.4585 69.3294 31.7327 69.3776 32.0354C69.4259 32.3382 69.3598 32.648 69.1922 32.9051L67.6275 35.3054C67.5621 35.4055 67.4596 35.4756 67.3423 35.5005C67.225 35.5253 67.1026 35.5028 67.002 35.438L65.1424 34.2366C65.0858 34.2001 65.0381 34.1516 65.0029 34.0944C64.9676 34.0372 64.9457 33.9728 64.9388 33.9061Z" fill="#461C58"/>
<path id="Vector_37" d="M71.1346 28.5898C70.6742 29.0781 69.819 28.816 69.759 28.1489C69.7543 28.0971 69.7547 28.045 69.76 27.9933C69.791 27.6978 69.9625 27.4295 69.9214 27.1175C69.9121 27.0398 69.8831 26.9658 69.837 26.9025C69.4701 26.4133 68.6087 27.1213 68.2624 26.6785C68.0501 26.4069 68.2997 25.9794 68.1367 25.676C67.9217 25.2754 67.2847 25.473 66.8852 25.2536C66.4407 25.0096 66.4673 24.3307 66.7599 23.9178C67.1167 23.4142 67.7423 23.1454 68.3601 23.1067C68.9779 23.068 69.5915 23.2342 70.1682 23.458C70.8236 23.7123 71.4734 24.0637 71.8767 24.6373C72.3672 25.335 72.4144 26.2729 72.1691 27.0886C72.0199 27.5849 71.5107 28.1911 71.1346 28.5898Z" fill="#2F2E41"/>
</g>
<defs>
<clipPath id="clip0_1469_251">
<rect width="81" height="61" fill="white"/>
</clipPath>
</defs>
</svg>
