<svg width="90" height="87" viewBox="0 0 90 87" fill="none" xmlns="http://www.w3.org/2000/svg">
<g id="undraw_agreement_re_d4dv 1" clip-path="url(#clip0_1469_41)">
<path id="Vector" d="M82.1102 86.9132V78.1884C82.1102 78.1884 85.5113 84.3739 82.1102 86.9132Z" fill="#F1F1F1"/>
<path id="Vector_2" d="M82.3203 86.9117L75.8913 81.0114C75.8913 81.0114 82.7493 82.6897 82.3203 86.9117Z" fill="#F1F1F1"/>
<path id="Vector_3" d="M59.6446 38.4969L25.5284 58.4308C25.409 58.5004 25.2669 58.5198 25.1332 58.4847C24.9995 58.4496 24.8852 58.363 24.8153 58.2438L2.87638 20.7179C2.80677 20.5986 2.78737 20.4565 2.82243 20.3228C2.85749 20.1892 2.94416 20.0749 3.0634 20.005L37.1796 0.0711117C37.299 0.00152621 37.4411 -0.0178681 37.5748 0.0171834C37.7085 0.0522349 37.8228 0.13887 37.8927 0.258083L59.8316 37.784C59.9012 37.9033 59.9207 38.0454 59.8856 38.1791C59.8505 38.3127 59.7639 38.427 59.6446 38.4969Z" fill="white"/>
<path id="Vector_4" d="M59.6446 38.4969L25.5284 58.4308C25.409 58.5004 25.2669 58.5198 25.1332 58.4847C24.9995 58.4496 24.8852 58.363 24.8153 58.2438L2.87638 20.7179C2.80677 20.5986 2.78737 20.4565 2.82243 20.3228C2.85749 20.1892 2.94416 20.0749 3.0634 20.005L37.1796 0.0711117C37.299 0.00152621 37.4411 -0.0178681 37.5748 0.0171834C37.7085 0.0522349 37.8228 0.13887 37.8927 0.258083L59.8316 37.784C59.9012 37.9033 59.9207 38.0454 59.8856 38.1791C59.8505 38.3127 59.7639 38.427 59.6446 38.4969ZM3.16863 20.185C3.09708 20.2269 3.04508 20.2955 3.02404 20.3757C3.003 20.4559 3.01464 20.5411 3.05641 20.6127L24.9953 58.1386C25.0373 58.2101 25.1059 58.2621 25.1861 58.2832C25.2663 58.3042 25.3516 58.2925 25.4232 58.2508L59.5394 38.3169C59.611 38.275 59.6629 38.2064 59.684 38.1262C59.705 38.046 59.6934 37.9608 59.6516 37.8891L37.7127 0.363269C37.6708 0.291738 37.6022 0.239754 37.522 0.218722C37.4417 0.197691 37.3564 0.20933 37.2848 0.251086L3.16863 20.185Z" fill="#3F3D56"/>
<path id="Vector_5" d="M25.0986 23.922L16.6371 28.866C16.5177 28.9356 16.3755 28.955 16.2418 28.92C16.1082 28.8849 15.9938 28.7983 15.924 28.6791L10.9785 20.22C10.9089 20.1006 10.8895 19.9585 10.9245 19.8249C10.9596 19.6912 11.0463 19.5769 11.1655 19.5071L19.627 14.563C19.7465 14.4935 19.8886 14.4741 20.0223 14.5091C20.156 14.5442 20.2703 14.6308 20.3402 14.75L25.2856 23.2091C25.3553 23.3285 25.3747 23.4706 25.3396 23.6042C25.3045 23.7379 25.2179 23.8522 25.0986 23.922ZM11.2707 19.6871C11.1992 19.729 11.1472 19.7975 11.1261 19.8777C11.1051 19.9579 11.1168 20.0432 11.1585 20.1148L16.104 28.5739C16.1459 28.6454 16.2145 28.6974 16.2947 28.7184C16.3749 28.7395 16.4602 28.7278 16.5319 28.6861L24.9934 23.742C25.065 23.7001 25.117 23.6316 25.138 23.5514C25.159 23.4712 25.1474 23.3859 25.1056 23.3143L20.1602 14.8552C20.1182 14.7837 20.0496 14.7317 19.9694 14.7107C19.8892 14.6896 19.8039 14.7013 19.7323 14.743L11.2707 19.6871Z" fill="#F2F2F2"/>
<path id="Vector_6" d="M23.2732 26.377L14.8117 31.321C14.7042 31.3836 14.5763 31.4011 14.456 31.3696C14.3357 31.338 14.2328 31.26 14.1699 31.1527L9.22441 22.6937C9.16176 22.5862 9.1443 22.4584 9.17586 22.3381C9.20741 22.2178 9.28541 22.1149 9.39273 22.052L17.8543 17.108C17.9617 17.0454 18.0897 17.0279 18.21 17.0595C18.3303 17.091 18.4332 17.169 18.4961 17.2763L23.4416 25.7354C23.5042 25.8428 23.5217 25.9707 23.4901 26.091C23.4585 26.2113 23.3806 26.3141 23.2732 26.377Z" fill="#2A0839"/>
<path id="Vector_7" d="M43.6966 19.9973L17.2318 35.4606C17.1244 35.5233 16.9964 35.5409 16.876 35.5093C16.7557 35.4778 16.6528 35.3997 16.59 35.2923C16.5272 35.1849 16.5097 35.057 16.5412 34.9366C16.5728 34.8163 16.6509 34.7134 16.7583 34.6507L43.2231 19.1874C43.2763 19.1564 43.3351 19.136 43.3961 19.1277C43.4572 19.1193 43.5193 19.1231 43.5789 19.1387C43.6385 19.1543 43.6944 19.1815 43.7435 19.2188C43.7926 19.256 43.8338 19.3025 43.8649 19.3557C43.896 19.4089 43.9163 19.4677 43.9247 19.5287C43.9331 19.5897 43.9293 19.6518 43.9137 19.7114C43.8981 19.771 43.8709 19.8269 43.8336 19.8759C43.7964 19.925 43.7498 19.9663 43.6966 19.9973Z" fill="#CCCCCC"/>
<path id="Vector_8" d="M38.9364 26.5214L18.8628 38.2503C18.8096 38.2814 18.7508 38.3017 18.6897 38.31C18.6287 38.3184 18.5666 38.3146 18.507 38.299C18.3866 38.2675 18.2837 38.1894 18.2209 38.082C18.1582 37.9746 18.1406 37.8467 18.1722 37.7263C18.2037 37.606 18.2818 37.5031 18.3893 37.4404L38.4629 25.7114C38.5161 25.6804 38.5749 25.6601 38.6359 25.6517C38.697 25.6433 38.7591 25.6471 38.8187 25.6627C38.8783 25.6783 38.9342 25.7055 38.9833 25.7428C39.0324 25.78 39.0736 25.8265 39.1047 25.8797C39.1358 25.9329 39.1561 25.9917 39.1645 26.0527C39.1729 26.1137 39.1691 26.1758 39.1535 26.2354C39.1379 26.295 39.1106 26.3509 39.0734 26.4C39.0361 26.449 38.9896 26.4903 38.9364 26.5214Z" fill="#CCCCCC"/>
<path id="Vector_9" d="M37.6089 9.79106L25.9068 16.6285C25.7993 16.6913 25.6714 16.7088 25.551 16.6773C25.4306 16.6457 25.3277 16.5677 25.2649 16.4603C25.2022 16.3529 25.1846 16.2249 25.2162 16.1046C25.2478 15.9843 25.3258 15.8814 25.4333 15.8186L37.1354 8.98115C37.2428 8.91838 37.3708 8.90084 37.4912 8.9324C37.5508 8.94802 37.6067 8.97523 37.6558 9.01247C37.7049 9.0497 37.7461 9.09624 37.7772 9.14942C37.8083 9.2026 37.8286 9.26138 37.837 9.32241C37.8453 9.38343 37.8416 9.44551 37.826 9.50509C37.8103 9.56467 37.7831 9.62059 37.7459 9.66966C37.7086 9.71873 37.6621 9.75998 37.6089 9.79106Z" fill="#CCCCCC"/>
<path id="Vector_10" d="M36.3194 14.2872L27.5377 19.4182C27.4845 19.4493 27.4257 19.4696 27.3647 19.478C27.3036 19.4864 27.2416 19.4826 27.182 19.467C27.1224 19.4514 27.0664 19.4242 27.0173 19.3869C26.9683 19.3497 26.927 19.3031 26.8959 19.25C26.8648 19.1968 26.8445 19.138 26.8361 19.077C26.8278 19.016 26.8315 18.9539 26.8471 18.8943C26.8628 18.8347 26.89 18.7788 26.9272 18.7297C26.9645 18.6807 27.011 18.6394 27.0642 18.6083L35.8459 13.4772C35.9533 13.4145 36.0813 13.3969 36.2017 13.4285C36.322 13.4601 36.4249 13.5381 36.4877 13.6455C36.5505 13.7529 36.568 13.8809 36.5365 14.0012C36.5049 14.1215 36.4268 14.2244 36.3194 14.2872Z" fill="#CCCCCC"/>
<path id="Vector_11" d="M46.9585 25.5767L20.4937 41.04C20.3863 41.1027 20.2583 41.1203 20.1379 41.0887C20.0176 41.0571 19.9147 40.9791 19.8519 40.8717C19.7891 40.7643 19.7716 40.6363 19.8031 40.516C19.8347 40.3957 19.9128 40.2928 20.0202 40.23L46.485 24.7668C46.5924 24.704 46.7204 24.6865 46.8408 24.7181C46.9611 24.7496 47.064 24.8277 47.1268 24.9351C47.1896 25.0425 47.2072 25.1704 47.1756 25.2908C47.144 25.4111 47.0659 25.514 46.9585 25.5767Z" fill="#CCCCCC"/>
<path id="Vector_12" d="M42.1983 32.1007L22.1247 43.8297C22.0715 43.8607 22.0127 43.881 21.9516 43.8894C21.8906 43.8978 21.8285 43.894 21.7689 43.8784C21.7093 43.8628 21.6534 43.8356 21.6043 43.7983C21.5552 43.7611 21.5139 43.7146 21.4828 43.6614C21.4518 43.6082 21.4314 43.5494 21.4231 43.4884C21.4147 43.4274 21.4184 43.3653 21.4341 43.3057C21.4497 43.2461 21.4769 43.1902 21.5142 43.1411C21.5514 43.0921 21.598 43.0508 21.6512 43.0197L41.7248 31.2908C41.778 31.2597 41.8368 31.2394 41.8978 31.2311C41.9589 31.2227 42.021 31.2265 42.0806 31.2421C42.1402 31.2577 42.1961 31.2849 42.2452 31.3222C42.2943 31.3594 42.3355 31.4059 42.3666 31.4591C42.3977 31.5123 42.418 31.5711 42.4264 31.6321C42.4348 31.6931 42.431 31.7552 42.4154 31.8148C42.3998 31.8744 42.3725 31.9303 42.3353 31.9793C42.2981 32.0284 42.2515 32.0697 42.1983 32.1007Z" fill="#CCCCCC"/>
<path id="Vector_13" d="M50.2204 31.1561L23.7556 46.6193C23.7024 46.6504 23.6436 46.6707 23.5826 46.6791C23.5215 46.6875 23.4594 46.6837 23.3998 46.6681C23.3402 46.6525 23.2843 46.6253 23.2352 46.588C23.1861 46.5508 23.1449 46.5042 23.1138 46.4511C23.0827 46.3979 23.0624 46.3391 23.054 46.2781C23.0457 46.2171 23.0494 46.155 23.065 46.0954C23.0807 46.0358 23.1079 45.9799 23.1451 45.9308C23.1824 45.8818 23.2289 45.8405 23.2821 45.8094L49.7469 30.3462C49.8001 30.3151 49.8589 30.2948 49.9199 30.2865C49.981 30.2781 50.0431 30.2818 50.1027 30.2975C50.1623 30.3131 50.2182 30.3403 50.2673 30.3775C50.3164 30.4148 50.3576 30.4613 50.3887 30.5145C50.4198 30.5677 50.4401 30.6264 50.4485 30.6875C50.4569 30.7485 50.4531 30.8106 50.4375 30.8701C50.4219 30.9297 50.3947 30.9856 50.3574 31.0347C50.3202 31.0838 50.2736 31.125 50.2204 31.1561Z" fill="#CCCCCC"/>
<path id="Vector_14" d="M51.8514 33.9458L25.3866 49.409C25.3334 49.4401 25.2746 49.4604 25.2135 49.4688C25.1525 49.4771 25.0904 49.4734 25.0308 49.4578C24.9712 49.4422 24.9153 49.415 24.8662 49.3777C24.8171 49.3405 24.7758 49.2939 24.7447 49.2408C24.7137 49.1876 24.6933 49.1288 24.685 49.0678C24.6766 49.0068 24.6804 48.9447 24.696 48.8851C24.7116 48.8255 24.7388 48.7696 24.7761 48.7205C24.8133 48.6715 24.8599 48.6302 24.9131 48.5991L51.3779 33.1359C51.4311 33.1048 51.4899 33.0845 51.5509 33.0761C51.6119 33.0678 51.674 33.0715 51.7336 33.0871C51.7932 33.1028 51.8492 33.13 51.8983 33.1672C51.9473 33.2045 51.9886 33.251 52.0197 33.3042C52.0508 33.3574 52.0711 33.4161 52.0795 33.4772C52.0878 33.5382 52.0841 33.6003 52.0685 33.6598C52.0528 33.7194 52.0256 33.7753 51.9884 33.8244C51.9511 33.8735 51.9046 33.9147 51.8514 33.9458Z" fill="#CCCCCC"/>
<path id="Vector_15" d="M43.2932 44.8057C43.6609 44.3729 43.9919 43.9101 44.2826 43.4223C44.5434 42.9822 44.7993 42.5117 44.8568 41.9956C44.8862 41.7758 44.8633 41.5522 44.7899 41.3429C44.7166 41.1337 44.5949 40.9446 44.4347 40.7913C44.2799 40.6486 44.0837 40.5589 43.8744 40.5351C43.6652 40.5113 43.4539 40.5547 43.271 40.659C43.0859 40.7652 42.9329 40.9195 42.8284 41.1055C42.7238 41.2915 42.6715 41.5023 42.677 41.7155C42.692 41.9504 42.7599 42.1788 42.8756 42.3837C42.9912 42.5887 43.1516 42.7649 43.3449 42.8992C44.1271 43.4657 45.3488 43.4361 46.1825 43.005C47.1216 42.5193 47.6068 41.2487 46.869 40.379C46.7156 40.1981 46.4602 40.4002 46.4987 40.5954C46.5474 40.859 46.695 41.094 46.9113 41.2525C47.1275 41.411 47.3962 41.4809 47.6623 41.448C47.9284 41.4151 48.1719 41.2819 48.3431 41.0756C48.5142 40.8693 48.6001 40.6054 48.5832 40.3378L48.2516 40.5316C48.6582 40.7117 49.1051 40.7815 49.5473 40.7341C49.9895 40.6867 50.4114 40.5237 50.7705 40.2615C50.9482 40.1324 51.1068 39.9791 51.2419 39.806C51.4042 39.5943 51.677 39.4575 51.8978 39.305L53.4891 38.2057C53.7232 38.0441 53.5006 37.6587 53.2646 37.8218L51.8234 38.8173C51.5832 38.9832 51.3415 39.147 51.1028 39.3151C50.9322 39.4352 50.8272 39.629 50.6719 39.7717C50.3779 40.036 50.0149 40.2114 49.625 40.2773C49.2351 40.3432 48.8345 40.297 48.4699 40.144C48.436 40.1258 48.3979 40.1166 48.3593 40.1172C48.3208 40.1179 48.2831 40.1285 48.2498 40.148C48.2165 40.1674 48.1887 40.1951 48.1692 40.2283C48.1497 40.2616 48.139 40.2993 48.1383 40.3378C48.1559 40.4975 48.1096 40.6576 48.0096 40.7833C47.9097 40.909 47.7641 40.9901 47.6046 41.009C47.445 41.0279 47.2845 40.983 47.1579 40.8841C47.0313 40.7853 46.949 40.6404 46.9287 40.4811L46.5583 40.6975C47.0343 41.2585 46.7174 42.1191 46.169 42.4956C45.5558 42.9166 44.6497 42.9897 43.9585 42.728C43.789 42.6697 43.6333 42.577 43.5011 42.4558C43.369 42.3346 43.2633 42.1875 43.1906 42.0236C43.1233 41.8756 43.104 41.7102 43.1357 41.5506C43.1673 41.3911 43.2482 41.2455 43.367 41.1344C43.4699 41.0327 43.6083 40.975 43.753 40.9735C43.8977 40.972 44.0373 41.0267 44.1424 41.1261C44.2568 41.2429 44.3408 41.3861 44.3869 41.543C44.433 41.6998 44.4398 41.8657 44.4067 42.0258C44.3354 42.4714 44.089 42.8823 43.8598 43.2629C43.598 43.6965 43.3021 44.1086 42.9746 44.4951C42.7911 44.7123 43.1077 45.0252 43.2932 44.8057Z" fill="#2A0839"/>
<path id="Vector_16" d="M47.2431 55.3808C47.2814 55.4203 47.3166 55.4627 47.3483 55.5076L52.2764 55.3871L52.8513 54.3368L54.5502 54.997L53.7132 56.9552C53.6455 57.1134 53.5284 57.2454 53.3794 57.3314C53.2303 57.4173 53.0574 57.4527 52.8866 57.432L47.3187 56.7596C47.1874 56.9258 47.0085 57.0481 46.806 57.1103C46.6034 57.1724 46.3867 57.1714 46.1847 57.1074C45.9827 57.0434 45.805 56.9195 45.6752 56.7521C45.5454 56.5846 45.4697 56.3817 45.4581 56.1702C45.4465 55.9586 45.4996 55.7486 45.6103 55.568C45.721 55.3874 45.8841 55.2448 46.0779 55.1591C46.2716 55.0734 46.4869 55.0487 46.6951 55.0883C46.9032 55.1279 47.0944 55.23 47.2431 55.3808Z" fill="#FFB7B7"/>
<path id="Vector_17" d="M63.308 85.301H61.6876L60.9167 79.0526L63.3082 79.0527L63.308 85.301Z" fill="#FFB7B7"/>
<path id="Vector_18" d="M63.7212 86.8713L58.4964 86.8711V86.805C58.4964 86.2658 58.7107 85.7488 59.0921 85.3675C59.4735 84.9862 59.9907 84.772 60.53 84.772H60.5302L63.7213 84.7721L63.7212 86.8713Z" fill="#2F2E41"/>
<path id="Vector_19" d="M48.5942 85.265L47.1042 84.6286L48.8505 78.5798L51.0497 79.5191L48.5942 85.265Z" fill="#FFB7B7"/>
<path id="Vector_20" d="M48.3572 86.8713L43.5525 84.8192L43.5784 84.7585C43.7903 84.2627 44.1906 83.8713 44.6911 83.6705C45.1916 83.4696 45.7515 83.4758 46.2475 83.6875L46.2476 83.6876L49.1822 84.9409L48.3572 86.8713Z" fill="#2F2E41"/>
<path id="Vector_21" d="M55.4318 56.7344L55.3145 58.6327L58.7397 58.9991L62.3235 59.3825L61.2686 56.5001L55.4318 56.7344Z" fill="#FFB7B7"/>
<path id="Vector_22" d="M55.2067 58.6571L53.8761 49.3838L56.1824 48.6282L56.8598 47.6995L60.1561 47.8945L60.6401 48.9782L62.3977 49.8085L62.1276 54.8236L62.3247 59.0189L55.2067 58.6571Z" fill="#C207C6"/>
<path id="Vector_23" d="M54.3692 56.172L52.0234 55.2337L52.0334 55.192C52.0434 55.1499 53.0419 50.9788 53.1744 50.3085C53.3126 49.6102 53.8171 49.4172 53.8385 49.4093L53.8542 49.4035L54.7826 49.686L55.1903 52.8887L54.3692 56.172Z" fill="#C207C6"/>
<path id="Vector_24" d="M49.8011 84.1668L46.6784 83.5265L51.6694 69.7586L53.3775 65.0626C53.3775 65.0626 54.4609 61.2973 54.9504 59.8402L55.2458 57.8851L62.2385 58.6589C62.2385 58.6589 64.1916 61.5263 63.5982 66.2L63.8666 83.7666L60.7439 83.9267L58.1283 66.2099L53.5377 75.9221C53.5377 75.9221 52.0907 80.0667 51.0555 80.965L49.8011 84.1668Z" fill="#2F2E41"/>
<path id="Vector_25" d="M59.4343 59.3109C59.4893 59.3096 59.5443 59.3126 59.5988 59.32L62.861 55.6253L62.4815 54.4898L64.1209 53.6932L64.9881 55.6382C65.0582 55.7953 65.0754 55.971 65.0371 56.1387C64.9988 56.3064 64.9072 56.4572 64.7759 56.5684L60.497 60.1929C60.5296 60.4022 60.4978 60.6165 60.4056 60.8072C60.3135 60.998 60.1654 61.1561 59.9811 61.2607C59.7969 61.3653 59.5851 61.4113 59.374 61.3926C59.163 61.3739 58.9626 61.2914 58.7996 61.1561C58.6366 61.0208 58.5186 60.8391 58.4614 60.6352C58.4042 60.4312 58.4104 60.2147 58.4793 60.0143C58.5482 59.814 58.6765 59.6394 58.8471 59.5138C59.0177 59.3881 59.2225 59.3174 59.4343 59.3109Z" fill="#FFB7B7"/>
<path id="Vector_26" d="M62.6006 55.9849L61.2398 52.7848L61.7705 50.5558L62.3424 49.8335C62.3843 49.8156 62.4294 49.8065 62.475 49.807C62.5206 49.8074 62.5655 49.8173 62.6071 49.8359C62.818 49.9208 62.9976 50.1809 63.1409 50.609L64.4162 54.2406L62.6006 55.9849Z" fill="#C207C6"/>
<path id="Vector_27" d="M55.5403 46.5137V44.1011C55.5403 43.2437 55.881 42.4214 56.4875 41.8152C57.0939 41.2089 57.9164 40.8683 58.7741 40.8683C59.6317 40.8683 60.4542 41.2089 61.0607 41.8152C61.6671 42.4214 62.0078 43.2437 62.0078 44.1011V46.5137C62.0077 46.6288 61.9619 46.7392 61.8805 46.8206C61.799 46.902 61.6886 46.9478 61.5735 46.9479H55.9747C55.8595 46.9478 55.7491 46.902 55.6677 46.8206C55.5863 46.7392 55.5404 46.6288 55.5403 46.5137Z" fill="#2F2E41"/>
<path id="Vector_28" d="M58.1096 46.8918C59.419 46.8918 60.4804 45.8306 60.4804 44.5216C60.4804 43.2126 59.419 42.1514 58.1096 42.1514C56.8002 42.1514 55.7387 43.2126 55.7387 44.5216C55.7387 45.8306 56.8002 46.8918 58.1096 46.8918Z" fill="#FFB7B7"/>
<path id="Vector_29" d="M54.7753 44.2941C54.776 43.6161 55.0458 42.9661 55.5254 42.4867C56.0049 42.0073 56.6551 41.7376 57.3333 41.7368H57.816C58.4942 41.7376 59.1444 42.0073 59.624 42.4867C60.1035 42.9661 60.3733 43.6161 60.374 44.2941V44.3424H59.354L59.0061 43.3685L58.9366 44.3424H58.4094L58.2339 43.851L58.1988 44.3424H54.7753L54.7753 44.2941Z" fill="#2F2E41"/>
<path id="Vector_30" d="M57.8762 47.2192C57.8284 47.1544 57.7998 47.0774 57.7937 46.997C57.7877 46.9167 57.8045 46.8362 57.8422 46.765C58.3537 45.7924 59.0698 43.9954 58.1193 42.8871L58.051 42.8075H60.8105V46.9493L58.3037 47.3915C58.2783 47.396 58.2526 47.3983 58.2268 47.3983C58.1584 47.3983 58.0909 47.3821 58.03 47.3509C57.969 47.3198 57.9163 47.2747 57.8762 47.2192Z" fill="#2F2E41"/>
<path id="Vector_31" d="M25.6855 83.9362L27.1499 84.4594L29.8654 79.0615L27.7041 78.2894L25.6855 83.9362Z" fill="#9F616A"/>
<path id="Vector_32" d="M24.8046 85.2219L25.4828 83.3247L28.3667 84.3551C28.8538 84.5298 29.2517 84.8904 29.4731 85.358C29.6945 85.8256 29.7214 86.3618 29.5478 86.8492L29.5265 86.9089L24.8046 85.2219Z" fill="#2F2E41"/>
<path id="Vector_33" d="M35.2081 85.3842L36.7632 85.3841L37.5031 79.3875L35.2079 79.3877L35.2081 85.3842Z" fill="#9F616A"/>
<path id="Vector_34" d="M34.8114 84.8766L37.874 84.8765H37.8741C38.1304 84.8765 38.3842 84.9269 38.621 85.025C38.8578 85.123 39.073 85.2668 39.2542 85.4479C39.4354 85.6291 39.5792 85.8442 39.6773 86.0809C39.7754 86.3177 39.8259 86.5714 39.8259 86.8276V86.891L34.8115 86.8912L34.8114 84.8766Z" fill="#2F2E41"/>
<path id="Vector_35" d="M31.6639 47.0735L32.3403 45.7375C32.3403 45.7375 34.8598 46.3685 35.0888 47.8283L31.6639 47.0735Z" fill="#F1F1F1"/>
<path id="Vector_36" d="M28.8734 62.3497L30.7126 72.6103L25.8289 81.2444L28.7464 82.3857L33.6935 74.0162L34.3278 71.7336L34.7083 83.6538L37.3395 83.574L38.5458 72.4434L36.6109 62.096L28.8734 62.3497Z" fill="#2F2E41"/>
<path id="Vector_37" d="M32.3647 64.7753C29.6627 64.7753 27.9472 64.2586 27.9087 64.2505L27.8465 64.2372L29.2539 57.714L29.3173 51.6969C29.3173 49.1471 30.9959 47.2672 31.2289 47.0937C31.2681 46.939 31.3407 46.7946 31.4415 46.6708C31.5423 46.5469 31.6689 46.4466 31.8125 46.3767C32.3724 46.1227 33.0567 46.4275 33.0855 46.4406L35.1392 47.2104L35.1489 47.2389C35.1736 47.3118 37.8787 56.1897 37.8787 56.1897C37.8787 56.1897 37.715 63.9466 37.6579 64.2007C37.6579 64.2007 33.866 64.7753 32.3647 64.7753Z" fill="#532368"/>
<path id="Vector_38" d="M34.4409 45.3168C35.9739 45.3168 37.2167 44.0744 37.2167 42.5418C37.2167 41.0092 35.9739 39.7668 34.4409 39.7668C32.9079 39.7668 31.6651 41.0092 31.6651 42.5418C31.6651 44.0744 32.9079 45.3168 34.4409 45.3168Z" fill="#9F616A"/>
<path id="Vector_39" opacity="0.2" d="M31.3459 52.189L36.2022 58.9626L36.9193 55.7994L31.3459 52.189Z" fill="black"/>
<path id="Vector_40" d="M46.5712 56.7979C46.4346 56.9059 46.276 56.9827 46.1066 57.0228C45.9371 57.0629 45.7609 57.0653 45.5904 57.03C45.4199 56.9946 45.2592 56.9223 45.1196 56.8182C44.9801 56.7141 44.8651 56.5806 44.7827 56.4272L40.6028 57.0961L41.5083 55.0919L45.3388 54.764C45.6057 54.6428 45.9079 54.6236 46.188 54.7102C46.4681 54.7968 46.7067 54.983 46.8586 55.2337C47.0106 55.4844 47.0652 55.7821 47.0122 56.0704C46.9592 56.3587 46.8023 56.6175 46.5712 56.7979Z" fill="#9F616A"/>
<path id="Vector_41" d="M41.7236 54.9779L43.2255 54.8306L43.6417 56.9251L41.7518 56.9585L41.7236 54.9779Z" fill="#F1F1F1"/>
<path id="Vector_42" d="M42.9547 57.6549L35.5991 57.0001L31.885 51.0951L31.8736 51.0429C31.7682 50.5605 31.842 50.0563 32.0812 49.6243C32.3205 49.1923 32.7088 48.8622 33.1737 48.6955C33.6386 48.5288 34.1483 48.5369 34.6076 48.7184C35.0669 48.8999 35.4445 49.2423 35.6698 49.6817L37.8501 53.9333L42.2503 54.5982L42.9547 57.6549Z" fill="#532368"/>
<path id="Vector_43" d="M32.0765 44.9511L34.3805 45.0338C34.5209 45.0389 34.9021 43.5237 34.952 43.2094C34.9914 43.0047 35.104 42.8214 35.2687 42.6937C35.4334 42.566 35.639 42.5026 35.8471 42.5154C36.0196 42.5317 36.4544 42.2096 36.9032 41.8281C37.7552 41.104 37.7109 39.744 36.775 39.1321C36.7494 39.1154 36.7243 39.1002 36.6996 39.0863C36.1092 38.756 35.4185 38.645 34.742 38.6366C34.1287 38.6289 33.498 38.7061 32.9577 38.9963C31.989 39.5166 31.4734 40.6535 31.4282 41.7519C31.3829 42.8503 31.7351 43.9243 32.1348 44.9484" fill="#2F2E41"/>
<path id="Vector_44" d="M89.8314 87H0.120643C0.0886468 87 0.0579606 86.9873 0.0353356 86.9647C0.0127105 86.9421 0 86.9114 0 86.8794C0 86.8474 0.0127105 86.8167 0.0353356 86.7941C0.0579606 86.7715 0.0886468 86.7588 0.120643 86.7588H89.8794C89.9114 86.7588 89.942 86.7715 89.9647 86.7941C89.9873 86.8167 90 86.8474 90 86.8794C90 86.946 89.898 87 89.8314 87Z" fill="#CBCBCB"/>
</g>
<defs>
<clipPath id="clip0_1469_41">
<rect width="90" height="87" fill="white"/>
</clipPath>
</defs>
</svg>
